<svg width="60" height="90" viewBox="0 0 60 90" fill="none" xmlns="http://www.w3.org/2000/svg">
<path d="M12.9993 90C9.16068 90 5.33298 88.5974 2.41148 85.8053L-29.6232 55.1316C-35.4589 49.5431 -35.4589 40.4525 -29.6232 34.864L2.41148 4.1903C5.33116 1.39386 9.16251 -2.44183e-06 12.992 -2.44183e-06C16.8252 -2.44183e-06 20.6606 1.39821 23.5812 4.1903L55.6259 34.864C61.458 40.4525 61.458 49.5431 55.6259 55.1316L23.5812 85.8053C20.6606 88.5974 16.827 90 12.9993 90ZM12.9957 2.69187C9.88765 2.69187 6.77417 3.82876 4.40539 6.09379L-27.6311 36.7718C-32.3741 41.3062 -32.3741 48.6894 -27.6311 53.2281L4.40539 83.9018C6.77781 86.1712 9.88766 87.3037 12.9975 87.3037C16.1092 87.3037 19.2208 86.1712 21.5887 83.9018L53.6288 53.2281C58.3737 48.6894 58.3737 41.3062 53.6288 36.7718L21.5887 6.09379C19.2208 3.82876 16.1073 2.69187 12.9957 2.69187" fill="#EF606F"/>
</svg>
