<svg width="150" height="193" viewBox="0 0 150 193" fill="none" xmlns="http://www.w3.org/2000/svg">
<path d="M94.9701 192.336C87.7434 192.336 80.5142 189.545 74.9985 183.96L57.7068 166.451L66.5758 157.467C70.1059 153.893 70.1059 148.075 66.5758 144.5L47.119 124.798C45.3553 123.012 43.037 122.117 40.7188 122.117C38.4006 122.117 36.0824 123.01 34.316 124.798L25.4444 133.782L8.27156 116.393C-2.75719 105.225 -2.75719 87.1149 8.27156 75.9421L74.9985 8.37702C80.5142 2.79292 87.7434 8.86877e-05 94.9701 8.86877e-05C102.199 8.86877e-05 109.429 2.79292 114.944 8.37702L149.301 43.1653V149.171L114.944 183.96C109.429 189.545 102.199 192.336 94.9701 192.336M56.5503 165.28L26.5982 134.951L35.4698 125.967C36.8718 124.55 38.7386 123.766 40.7162 123.766C42.6991 123.766 44.5632 124.55 45.9626 125.967L65.4219 145.671C68.3158 148.599 68.3158 153.366 65.4219 156.297L56.5503 165.28" fill="#EF606F"/>
<path d="M40.7154 179.848C38.3999 179.848 36.0816 178.955 34.3152 177.169L14.8585 157.467C11.331 153.892 11.331 148.075 14.8585 144.5L25.4437 133.782L26.5975 134.95L16.0124 145.671C13.1238 148.598 13.1238 153.366 16.0124 156.297L35.4691 175.996C36.916 177.461 38.817 178.193 40.7154 178.193C42.6165 178.193 44.5176 177.461 45.9618 175.996L56.5496 165.279L57.7061 166.451L47.1183 177.169C45.3519 178.955 43.0337 179.848 40.7154 179.848" fill="white"/>
<path d="M57.7068 166.451L56.5503 165.28L65.4219 156.297C68.3157 153.366 68.3157 148.599 65.4219 145.671L45.9625 125.967C44.5631 124.55 42.699 123.766 40.7161 123.766C38.7385 123.766 36.8718 124.55 35.4697 125.967L26.5982 134.951L25.4443 133.782L34.3159 124.798C36.0823 123.01 38.4005 122.117 40.7188 122.117C43.037 122.117 45.3552 123.012 47.119 124.798L66.5757 144.501C70.1059 148.075 70.1059 153.893 66.5757 157.468L57.7068 166.451" fill="white"/>
</svg>
