<svg width="35" height="36" viewBox="0 0 35 36" fill="none" xmlns="http://www.w3.org/2000/svg">
<path d="M17.3994 35.179C15.8637 35.179 14.4219 34.5774 13.3338 33.4767L1.68612 21.6836C0.596979 20.5837 0 19.1196 0 17.5633C0 16.0094 0.601204 14.5472 1.68612 13.4508L13.3338 1.65027C14.4219 0.550611 15.911 0.000114888 17.3994 0.000114888C18.8888 0.000114888 20.3769 0.550611 21.4631 1.65027L33.1147 13.4508C34.1997 14.5472 34.7987 16.0094 34.7987 17.5633C34.7987 19.1196 34.2028 20.5837 33.1147 21.6836L21.4631 33.4767C20.378 34.5753 18.935 35.179 17.3994 35.179ZM17.3994 1.60107C16.302 1.60107 15.2676 2.03446 14.4889 2.82104L2.84128 14.6194C2.06264 15.4057 1.63464 16.4533 1.63464 17.5633C1.63464 18.6777 2.06264 19.7233 2.84128 20.5097L14.4889 32.3048C15.2676 33.0943 16.334 33.4871 17.4004 33.4871C18.4669 33.4871 19.5323 33.0943 20.308 32.3048L31.9585 20.5097C32.7382 19.7233 33.1662 18.6777 33.1662 17.5633C33.1662 16.4533 32.7382 15.4057 31.9585 14.6194L20.308 2.82104C19.5323 2.03446 18.4977 1.60107 17.3994 1.60107" fill="white"/>
</svg>
