<?xml version="1.0" standalone="no"?>
<!DOCTYPE svg PUBLIC "-//W3C//DTD SVG 20010904//EN"
 "http://www.w3.org/TR/2001/REC-SVG-20010904/DTD/svg10.dtd">
<svg version="1.0" xmlns="http://www.w3.org/2000/svg"
 width="1060.000000pt" height="1060.000000pt" viewBox="0 0 1060.000000 1060.000000"
 preserveAspectRatio="xMidYMid meet">
<metadata>
Created by potrace 1.14, written by Peter Selinger 2001-2017
</metadata>
<g transform="translate(0.000000,1060.000000) scale(0.100000,-0.100000)"
fill="#000000" stroke="none">
<path d="M2909 6313 c-22 -5 -43 -51 -40 -87 2 -20 -1 -27 -11 -24 -7 3 -13
11 -13 19 0 25 -67 26 -176 2 -135 -30 -163 -41 -148 -59 8 -10 8 -14 0 -14
-22 0 -26 2 -23 12 1 5 -2 7 -8 3 -5 -3 -10 -13 -10 -21 0 -8 -5 -14 -11 -14
-6 0 -9 9 -6 20 8 31 -3 24 -14 -10 -8 -23 -15 -28 -26 -21 -18 10 -53 3 -53
-10 0 -5 5 -9 12 -9 6 0 3 -9 -7 -20 -10 -11 -25 -20 -34 -20 -20 0 -94 -48
-124 -81 -12 -13 -20 -32 -18 -43 3 -18 2 -18 -13 -3 -12 12 -23 14 -40 7 -13
-5 -26 -6 -29 -3 -3 2 -13 -7 -22 -21 -10 -14 -21 -26 -27 -26 -5 0 -21 -8
-36 -18 -15 -11 -47 -32 -72 -47 -25 -16 -39 -30 -32 -33 22 -7 13 -19 -13
-17 -20 3 -25 -1 -25 -20 0 -14 -13 -31 -37 -49 -21 -14 -63 -54 -95 -89 -31
-35 -73 -72 -93 -82 -28 -16 -35 -25 -32 -42 3 -16 -2 -23 -19 -27 -15 -4 -21
-11 -18 -21 4 -8 1 -15 -5 -15 -6 0 -11 -7 -11 -15 0 -8 5 -15 11 -15 5 0 7
-4 4 -10 -3 -6 1 -7 9 -4 9 3 16 2 16 -4 0 -5 12 -7 26 -4 14 2 29 0 33 -6 5
-8 15 -7 34 3 16 8 25 10 21 3 -4 -6 5 -3 19 8 15 10 29 27 32 37 4 9 11 15
16 12 5 -4 9 1 9 10 0 11 5 15 15 12 8 -4 17 -1 21 5 5 7 2 8 -6 3 -8 -5 -11
-4 -6 3 4 6 29 23 57 39 45 24 48 28 30 35 -26 9 -28 18 -2 11 10 -3 22 1 26
8 6 8 4 10 -6 4 -8 -4 -5 1 6 12 11 12 22 21 25 21 30 0 40 5 40 21 0 14 5 18
21 14 16 -4 17 -8 7 -14 -7 -5 -8 -9 -2 -9 6 0 21 9 34 20 13 11 17 20 10 20
-10 0 -10 3 0 15 7 8 17 12 24 8 6 -3 8 -3 4 2 -10 11 32 46 46 38 6 -3 8 -2
3 2 -4 5 0 16 9 26 8 9 17 26 18 36 1 10 17 24 34 32 18 8 32 21 32 28 0 7 7
13 16 13 8 0 12 -5 8 -11 -4 -8 0 -8 15 0 12 7 21 21 21 36 0 13 5 27 10 30 6
4 7 12 3 18 -3 7 3 4 14 -6 25 -22 74 -30 67 -12 -3 6 1 17 8 23 13 10 18 12
41 12 9 0 8 3 -2 9 -7 5 -21 6 -31 4 -10 -3 -20 0 -24 5 -8 13 23 39 32 26 21
-29 100 -22 124 11 9 12 -1 27 -14 19 -6 -4 -6 1 1 14 15 28 31 37 31 18 0 -9
3 -15 8 -15 21 4 22 -3 1 -20 -13 -11 -21 -22 -18 -26 4 -3 14 1 23 10 9 9 21
13 27 9 8 -4 9 -3 5 4 -4 7 -2 13 3 13 6 1 17 2 24 3 6 1 20 -2 31 -7 16 -8
18 -6 14 17 -5 24 15 39 24 17 2 -4 14 -12 27 -16 16 -5 21 -4 17 4 -4 6 0 11
9 11 9 0 13 -5 9 -11 -3 -6 5 -4 18 5 14 9 28 13 33 9 4 -5 5 -2 1 5 -4 7 -11
10 -16 7 -15 -9 -18 10 -4 23 8 7 14 9 14 3 0 -5 8 -7 19 -4 13 3 17 12 15 26
-3 13 -1 16 2 7 20 -43 66 -41 78 4 5 17 8 18 15 6 6 -9 6 -19 -1 -27 -6 -7
-9 -13 -7 -14 32 -6 39 -5 44 11 9 27 36 34 42 10 3 -11 9 -17 14 -14 5 2 20
-3 34 -12 22 -14 25 -15 31 -1 8 22 61 32 81 15 9 -7 14 -8 11 -3 -10 17 46
12 56 -5 8 -12 11 -11 16 9 3 14 12 27 19 29 10 3 12 0 8 -11 -8 -22 8 -30 23
-12 7 8 18 15 25 15 15 0 12 -43 -3 -48 -7 -2 -12 -8 -12 -14 0 -7 7 -5 18 4
9 8 27 13 40 12 12 -1 25 3 28 7 3 5 10 9 15 9 6 0 7 -4 4 -10 -13 -21 8 -9
27 16 l20 25 26 -23 c14 -13 22 -18 19 -12 -4 7 2 9 18 6 14 -2 31 0 38 6 7 6
19 7 26 3 10 -6 9 -10 -3 -14 -31 -12 -17 -30 18 -24 19 3 39 0 45 -6 6 -6 11
-8 11 -3 0 4 7 1 15 -8 18 -17 20 -30 3 -20 -7 4 -8 3 -4 -4 10 -17 27 -15 42
6 12 15 13 15 14 -10 0 -15 4 -29 9 -32 5 -3 8 2 7 12 -1 12 5 16 19 14 11 -2
33 -3 48 -2 16 0 26 -4 23 -9 -4 -5 3 -9 14 -8 11 1 20 5 20 10 0 5 7 6 16 3
8 -3 12 -2 9 4 -3 6 -2 10 3 10 6 0 13 -12 16 -26 5 -18 11 -24 23 -20 11 4
14 2 10 -9 -4 -8 -1 -17 5 -21 6 -4 8 -3 5 3 -4 7 7 12 27 15 19 2 32 0 30 -4
-10 -16 17 -7 36 12 11 11 30 20 41 20 18 0 19 2 9 15 -10 13 -9 15 8 15 18 0
20 -4 13 -22 -5 -13 -14 -22 -21 -20 -7 1 -18 -2 -24 -8 -7 -5 -17 -6 -21 -2
-5 4 1 -9 12 -29 12 -22 17 -41 12 -46 -9 -9 30 -11 47 -1 5 3 19 4 31 3 12
-1 20 2 17 7 -3 4 5 8 18 9 13 0 31 2 40 4 17 3 17 2 0 -20 -9 -12 -23 -20
-29 -18 -19 7 -16 -22 4 -38 11 -10 14 -10 9 -1 -5 8 0 12 18 12 14 0 28 -5
32 -12 5 -8 2 -9 -9 -5 -10 3 -17 2 -17 -2 0 -5 7 -11 15 -15 8 -3 15 -1 15 4
0 21 37 9 48 -15 6 -13 23 -27 37 -31 13 -3 23 -10 20 -14 -2 -4 7 -5 22 -2
21 4 25 2 20 -12 -5 -12 7 -9 53 14 33 17 60 29 60 27 0 -11 -54 -74 -73 -84
-12 -7 -17 -12 -10 -13 6 0 18 -3 26 -6 9 -3 17 3 22 18 8 22 8 22 12 -5 4
-28 5 -28 31 -11 l27 17 -20 -23 -20 -23 23 7 c25 8 27 4 11 -27 -7 -12 -8
-19 -4 -15 5 4 14 3 20 -2 9 -7 21 -7 40 0 15 6 30 8 35 5 5 -3 10 1 13 7 2 7
8 9 13 5 4 -4 0 -22 -10 -40 -11 -18 -13 -26 -5 -19 7 6 21 12 31 12 10 0 18
3 18 8 0 4 23 17 50 30 44 20 52 21 65 9 12 -13 11 -16 -8 -22 -12 -4 -24 -8
-27 -10 -29 -13 -79 -33 -94 -39 -10 -3 -16 -12 -13 -20 3 -7 1 -18 -3 -22
-19 -19 5 -32 45 -24 22 4 37 9 33 10 -14 4 -28 7 -40 9 -8 1 -6 7 6 16 16 12
22 12 35 2 12 -9 13 -9 7 1 -5 8 1 12 19 12 17 0 25 -4 22 -12 -2 -7 -10 -12
-16 -10 -7 1 -10 -2 -7 -7 4 -5 0 -12 -6 -14 -8 -3 -6 -6 4 -6 10 -1 15 -7 12
-14 -3 -8 4 -13 17 -14 26 -2 39 -20 32 -42 -3 -12 0 -11 11 3 9 11 16 24 16
29 0 4 4 6 8 3 5 -3 9 1 9 8 0 7 13 29 29 50 26 33 30 35 42 19 18 -25 15 -50
-10 -73 -12 -11 -25 -20 -29 -20 -4 0 -10 -7 -13 -16 -6 -14 -4 -15 9 -4 13
11 16 11 13 0 -2 -9 6 -14 18 -15 11 0 29 -7 40 -15 10 -8 16 -10 11 -5 -8 10
40 45 63 45 9 0 11 -3 4 -8 -6 -4 8 -25 38 -54 43 -43 49 -46 63 -31 23 22
105 31 105 10 0 -17 37 -30 46 -16 3 5 16 9 30 9 17 0 24 -5 24 -20 0 -11 -5
-20 -11 -20 -5 0 -8 -4 -5 -9 3 -5 -1 -11 -9 -15 -8 -3 -17 -1 -20 3 -6 11
-45 21 -45 12 0 -4 18 -17 40 -30 22 -12 40 -27 40 -32 0 -6 5 -7 10 -4 6 3
13 -1 16 -9 5 -12 9 -13 24 -3 13 7 15 14 8 18 -12 8 39 36 60 33 6 -1 18 -2
25 -3 8 -1 8 -4 -2 -10 -12 -8 -12 -12 -2 -25 15 -18 35 -11 27 9 -5 14 14 25
45 25 10 0 19 5 19 10 0 6 -9 10 -20 10 -11 0 -29 9 -40 20 -24 24 -27 24 -46
5 -17 -17 -59 -21 -49 -5 3 6 1 10 -6 10 -6 0 -9 8 -6 19 6 25 -21 50 -59 57
-56 9 -114 36 -114 53 0 13 -2 13 -9 2 -6 -9 -11 -10 -15 -2 -4 6 -4 16 0 22
4 7 0 9 -13 5 -16 -5 -29 4 -59 45 -41 53 -108 97 -119 78 -5 -7 -11 -6 -21 2
-8 7 -29 9 -49 6 -30 -5 -37 -2 -55 24 -12 16 -18 29 -14 29 4 0 -1 7 -12 15
-10 8 -30 15 -44 15 -14 0 -37 11 -52 25 -15 14 -32 25 -38 25 -6 0 -8 5 -5
10 4 6 11 8 16 5 5 -4 9 1 9 11 0 14 -2 15 -17 3 -10 -8 -21 -18 -25 -24 -4
-5 -15 0 -26 13 -11 12 -32 23 -48 23 -46 2 -64 9 -64 25 0 12 -4 12 -21 4
-18 -10 -20 -9 -17 12 2 18 -2 23 -19 24 -13 1 -25 3 -28 4 -3 1 -9 3 -14 4
-4 0 -24 16 -42 34 -19 19 -50 42 -70 52 -19 10 -41 26 -48 34 -7 9 -17 14
-21 11 -4 -2 -15 4 -25 15 -10 11 -14 20 -10 20 18 0 -31 29 -50 30 -15 0 -17
2 -7 9 11 7 10 10 -3 15 -23 8 -22 9 -42 -14 -13 -13 -26 -17 -41 -13 -12 3
-20 9 -17 13 12 19 -46 38 -132 43 -17 1 -39 9 -50 17 -41 33 -61 40 -67 23
-6 -14 -10 -13 -31 7 -13 12 -28 19 -33 16 -9 -5 -20 30 -25 77 -1 9 -3 17 -6
17 -2 0 -10 -8 -18 -17 -13 -17 -13 -17 -11 2 3 18 -3 20 -49 20 -35 0 -55 -5
-58 -13 -4 -10 -12 -9 -34 7 -23 16 -39 20 -72 16 -23 -3 -45 -8 -49 -10 -4
-3 -13 2 -20 10 -9 11 -23 14 -46 9 -21 -4 -40 -2 -49 6 -19 15 -92 23 -100
11 -4 -7 -14 -6 -30 1 -18 8 -32 8 -52 -1 -23 -9 -37 -9 -68 2 -22 7 -51 12
-65 10 -43 -5 -108 -5 -127 0 -10 2 -25 3 -34 0z"/>
<path d="M3475 6089 c-4 -6 -5 -12 -2 -15 2 -3 7 2 10 11 7 17 1 20 -8 4z"/>
<path d="M3579 6083 c-13 -16 -12 -17 4 -4 9 7 17 15 17 17 0 8 -8 3 -21 -13z"/>
<path d="M3631 6050 c-12 -7 -12 -12 3 -34 21 -33 23 -33 20 5 -3 37 -5 40
-23 29z"/>
<path d="M3108 5925 c-1 -1 -21 -5 -43 -8 -102 -15 -223 -67 -311 -133 -103
-78 -165 -161 -204 -275 -127 -367 194 -738 642 -742 111 0 173 8 251 33 230
76 392 238 438 439 10 42 13 154 6 191 -20 101 -67 194 -138 273 -88 99 -237
181 -385 212 -55 11 -246 19 -256 10z"/>
<path d="M4173 5866 c0 -8 6 -12 14 -9 7 3 13 9 13 14 0 5 -6 9 -13 9 -8 0
-14 -6 -14 -14z"/>
<path d="M6140 5833 c0 -2 4 -11 10 -21 5 -9 87 -199 181 -422 94 -223 173
-407 175 -409 5 -6 106 -8 122 -3 6 2 12 8 12 12 0 5 79 194 175 421 96 227
175 415 175 418 0 3 -24 7 -54 8 l-54 1 -31 -71 c-16 -40 -80 -193 -141 -342
-61 -148 -117 -283 -124 -299 l-14 -29 -15 34 c-9 19 -52 122 -97 229 -45 107
-87 209 -95 225 -7 17 -32 75 -55 130 -23 55 -46 105 -51 110 -9 9 -119 16
-119 8z"/>
<path d="M7132 5406 l3 -430 43 0 c24 -1 49 2 54 6 8 4 11 138 10 415 0 224
-1 415 -1 424 -1 13 -12 16 -56 16 l-55 -1 2 -430z"/>
<path d="M7450 5794 c0 -25 5 -44 13 -46 6 -2 121 -4 255 -3 133 0 242 -2 242
-5 0 -3 -63 -86 -141 -185 -77 -99 -153 -196 -167 -215 -15 -19 -29 -37 -32
-40 -3 -3 -41 -51 -83 -107 -43 -55 -83 -106 -90 -112 -9 -7 -11 -26 -8 -58
l6 -47 290 -1 c160 0 302 1 317 3 27 4 29 12 19 83 -1 3 -111 5 -246 5 -188
-1 -244 2 -241 11 3 7 40 58 84 115 424 556 423 555 420 600 l-3 43 -317 1
-318 0 0 -42z"/>
<path d="M8269 5831 c-1 -3 -2 -196 -3 -428 -1 -276 2 -424 9 -426 5 -2 134
-3 285 -2 l275 0 1 45 1 46 -229 -1 c-143 0 -229 4 -231 10 -3 9 -1 216 2 271
1 20 5 21 204 22 111 0 207 1 214 1 7 1 11 17 10 44 l-2 42 -200 2 c-110 1
-207 2 -215 2 -13 1 -15 23 -14 138 1 76 2 140 3 143 1 3 94 5 209 5 114 0
215 1 225 3 14 4 17 13 15 46 l-3 41 -278 1 c-152 0 -278 -2 -278 -5z"/>
<path d="M8928 5821 c3 -9 64 -119 134 -244 186 -331 168 -283 168 -452 0 -80
3 -145 8 -146 4 0 28 -1 54 -2 l47 -2 3 155 3 155 56 95 c130 221 262 445 265
451 2 4 -26 6 -62 5 l-66 -1 -45 -80 c-25 -44 -59 -105 -75 -135 -17 -30 -53
-95 -81 -143 l-49 -89 -60 109 c-33 59 -80 146 -105 193 -85 155 -75 145 -142
146 -51 1 -59 -1 -53 -15z"/>
<path d="M9789 5826 c-1 -6 -2 -197 -3 -424 -1 -359 1 -415 14 -421 11 -6 521
-7 551 -2 4 1 6 20 5 44 l-1 42 -227 0 -228 0 -1 28 c-1 35 -1 197 0 241 l1
33 173 1 c94 0 191 1 215 1 l42 1 -2 44 -1 44 -209 0 c-115 0 -212 2 -215 6
-5 5 -7 160 -4 262 1 20 5 20 214 19 116 -1 218 1 225 3 7 2 12 21 12 46 l0
42 -280 0 c-192 0 -280 -3 -281 -10z"/>
<path d="M4460 5730 c-15 -13 -18 -20 -9 -20 8 0 22 9 32 20 9 11 13 20 8 20
-4 0 -18 -9 -31 -20z"/>
<path d="M4625 5579 c-4 -6 -5 -12 -2 -15 7 -7 37 7 37 17 0 13 -27 11 -35 -2z"/>
<path d="M461 5504 c13 -16 29 -19 29 -5 0 5 -9 11 -21 14 -16 4 -18 3 -8 -9z"/>
<path d="M710 5496 c-13 -13 -13 -39 0 -31 14 9 42 -14 33 -28 -3 -6 -1 -7 5
-3 6 4 8 14 5 23 -5 13 -2 15 12 9 11 -4 16 -4 12 0 -4 4 -2 13 3 19 8 10 2
14 -25 17 -19 2 -40 -1 -45 -6z"/>
<path d="M565 5490 c-3 -5 -1 -10 4 -10 6 0 11 5 11 10 0 6 -2 10 -4 10 -3 0
-8 -4 -11 -10z"/>
<path d="M440 5469 c0 -5 5 -7 10 -4 6 3 10 8 10 11 0 2 -4 4 -10 4 -5 0 -10
-5 -10 -11z"/>
<path d="M629 5443 c-7 -18 -6 -30 1 -37 8 -8 9 -5 4 9 -7 18 -6 19 12 5 13
-10 15 -10 7 0 -8 9 -9 19 -2 32 7 12 6 18 -1 18 -6 0 -15 -12 -21 -27z"/>
<path d="M700 5430 c0 -12 -7 -20 -16 -20 -13 0 -14 -3 -4 -15 12 -15 35 -11
25 5 -3 4 2 13 10 20 8 7 12 16 9 21 -10 16 -24 9 -24 -11z"/>
<path d="M239 5421 c-13 -11 -22 -22 -19 -24 3 -3 16 3 29 14 13 11 22 22 19
25 -3 2 -16 -4 -29 -15z"/>
<path d="M557 5433 c-3 -5 9 -9 26 -10 26 -1 28 0 12 7 -26 11 -33 12 -38 3z"/>
<path d="M830 5420 c0 -14 -9 -21 -35 -26 -38 -7 -39 -16 -2 -21 12 -2 28 -12
36 -23 16 -24 41 -26 41 -5 0 15 26 20 54 9 9 -3 16 -13 16 -21 0 -8 -5 -11
-11 -7 -8 4 -7 0 1 -15 6 -12 21 -26 33 -31 42 -16 62 -23 82 -27 10 -2 23 -9
27 -16 4 -6 8 -8 8 -3 0 5 10 1 22 -10 13 -12 18 -13 13 -4 -5 9 0 8 13 -4 12
-11 22 -26 23 -35 0 -9 3 -11 5 -4 7 16 34 5 28 -12 -3 -7 2 -15 11 -19 9 -3
13 -10 10 -16 -3 -5 0 -8 7 -5 8 3 19 -7 26 -25 8 -17 17 -28 22 -25 5 3 14 0
22 -7 16 -16 48 -19 48 -6 0 6 6 5 15 -2 8 -7 15 -9 15 -5 0 4 7 2 15 -5 11
-9 15 -10 15 -1 0 7 10 11 23 9 12 -2 20 -6 17 -10 -3 -4 5 -15 18 -23 12 -9
20 -19 18 -23 -7 -12 18 -27 49 -30 34 -4 58 -20 49 -33 -3 -5 -2 -9 3 -8 21
4 43 -2 43 -12 0 -5 -4 -7 -10 -4 -6 3 -10 -4 -10 -17 0 -17 3 -19 9 -9 5 8
14 10 21 6 8 -5 11 -4 6 3 -3 6 -2 13 4 17 5 3 10 1 10 -5 0 -6 4 -9 9 -6 5 3
12 -1 15 -10 4 -10 14 -14 26 -11 11 3 20 2 20 -3 0 -4 6 -8 13 -7 34 1 48 -4
41 -14 -5 -8 1 -10 18 -6 18 5 25 2 25 -8 0 -8 -4 -12 -9 -9 -4 3 -5 -1 -3 -8
3 -7 23 -14 47 -15 24 -1 44 -6 46 -11 6 -18 36 -48 55 -55 10 -4 16 -11 12
-16 -3 -5 0 -13 6 -17 8 -4 9 -3 5 4 -12 20 5 13 43 -15 20 -16 38 -28 41 -28
13 -1 30 -17 25 -26 -4 -5 -2 -9 3 -9 5 0 26 -16 46 -34 l36 -35 23 22 c13 12
21 27 19 32 -3 6 1 5 8 -2 7 -6 20 -9 29 -5 13 5 14 3 4 -10 -11 -12 -9 -17
13 -26 14 -7 38 -12 55 -12 17 0 32 -6 35 -15 4 -8 10 -12 15 -9 31 19 81 1
65 -24 -3 -5 1 -9 9 -9 8 0 12 5 8 10 -3 5 4 4 15 -2 26 -14 45 -14 37 -1 -3
6 1 10 10 10 11 0 15 -5 11 -15 -3 -8 -2 -14 2 -14 4 1 17 -2 30 -6 21 -7 24
-14 25 -62 0 -27 15 -30 34 -5 12 15 13 14 7 -12 -6 -24 -4 -28 8 -23 9 3 21
0 28 -6 10 -9 11 -9 5 2 -6 11 -4 13 8 8 9 -3 19 -2 22 3 3 5 12 7 20 3 8 -3
15 -1 15 5 0 13 40 2 46 -13 4 -10 41 -11 98 -1 11 1 31 -3 45 -10 20 -10 28
-11 40 -1 12 10 13 9 6 -3 -6 -12 -5 -13 6 -2 17 15 30 16 27 0 -2 -7 17 -15
47 -20 41 -8 51 -6 61 7 11 15 13 14 19 -6 5 -15 9 -18 15 -9 5 9 9 9 14 1 5
-8 16 -5 33 9 15 11 29 17 32 13 8 -10 26 -15 73 -21 24 -2 36 -8 32 -16 -3
-6 0 -4 8 5 13 15 74 17 138 5 20 -4 26 0 27 15 1 10 9 26 17 35 9 9 13 21 9
27 -4 6 -8 19 -8 28 -2 23 22 13 28 -12 3 -12 13 -19 29 -18 12 0 33 -2 46 -4
12 -3 22 -2 22 2 0 11 128 33 142 25 7 -5 8 -2 3 6 -6 10 -1 12 26 7 21 -5 29
-4 20 2 -10 7 -5 11 18 16 24 5 29 10 22 19 -14 17 -1 29 15 15 10 -9 15 -7
20 5 3 9 10 16 15 16 4 0 6 -7 3 -15 -4 -8 -3 -15 0 -15 4 0 11 11 16 25 8 21
13 24 28 16 24 -13 58 5 42 23 -12 16 13 42 30 31 5 -3 10 -2 10 2 0 5 18 17
41 27 62 28 134 106 97 106 -6 0 -9 3 -6 6 4 3 17 -2 31 -11 20 -12 26 -13 30
-3 3 10 9 10 24 1 17 -10 20 -9 19 5 0 9 4 16 11 15 7 -2 10 3 7 11 -3 8 -1
17 5 21 6 3 11 0 11 -7 0 -7 9 -2 19 11 11 15 24 22 34 18 11 -4 14 -2 10 9
-4 12 -1 15 22 14 3 0 15 9 27 20 12 11 26 20 31 20 5 0 3 7 -4 16 -11 14 -10
16 11 12 20 -2 24 1 22 16 -3 14 1 17 14 12 14 -5 15 -4 5 8 -9 11 -8 15 5 20
9 3 20 3 25 0 5 -3 8 -1 7 4 -4 12 103 128 115 124 5 -1 6 2 3 7 -4 5 7 19 22
30 23 16 32 17 41 8 10 -9 11 -8 6 6 -5 11 -2 17 7 17 7 0 19 9 25 20 11 16
10 18 -1 14 -8 -3 -17 0 -22 7 -4 8 -3 10 4 5 7 -4 12 -2 12 3 0 6 6 11 14 11
7 0 16 8 19 18 2 9 8 26 12 37 5 11 5 17 1 13 -4 -3 -23 0 -42 8 -19 8 -34 12
-34 9 0 -3 -9 -1 -21 5 -13 7 -25 8 -32 2 -7 -5 -24 -12 -38 -16 -17 -4 -29
-15 -33 -30 -3 -14 -15 -28 -26 -31 -11 -3 -20 -10 -20 -14 0 -4 -22 -20 -50
-36 -27 -16 -52 -35 -55 -42 -3 -9 0 -11 8 -7 6 4 1 -5 -12 -19 -13 -14 -38
-29 -55 -33 -17 -4 -25 -9 -18 -11 6 -3 10 -9 6 -14 -8 -13 -44 -11 -44 2 0 8
-5 7 -15 -1 -9 -7 -14 -18 -11 -25 2 -6 -21 -31 -51 -55 -34 -28 -56 -54 -60
-71 -3 -18 -13 -29 -29 -33 -13 -4 -28 -15 -34 -26 -8 -16 -15 -18 -29 -10
-23 12 -31 4 -31 -32 0 -17 -4 -27 -10 -23 -6 3 -10 -4 -10 -17 l-1 -23 -18
23 c-24 28 -35 28 -58 -1 -10 -13 -24 -22 -31 -19 -6 2 -12 -2 -12 -8 0 -8 9
-10 25 -6 18 5 25 2 25 -8 0 -24 -20 -29 -62 -15 -32 10 -44 10 -60 0 -11 -7
-32 -15 -47 -18 -14 -2 -28 -7 -31 -11 -8 -12 -60 -32 -60 -24 0 4 -9 8 -20 9
-17 2 -18 -1 -10 -17 14 -27 -4 -34 -34 -15 -15 10 -30 13 -38 9 -7 -5 -21 -7
-32 -5 -10 1 -15 -2 -12 -7 11 -19 -5 -43 -25 -37 -14 5 -19 1 -19 -14 0 -12
-4 -21 -10 -21 -5 0 -10 6 -10 14 0 16 -19 25 -38 18 -7 -2 -18 -16 -24 -31
-9 -21 -12 -23 -15 -8 -3 9 -9 15 -14 12 -5 -4 -9 -1 -9 4 0 6 5 11 10 11 6 0
10 5 10 10 0 6 -9 10 -21 10 -11 0 -18 -4 -15 -9 3 -5 0 -13 -7 -19 -18 -14
-47 -11 -47 5 0 8 -4 12 -9 8 -5 -3 -16 1 -24 9 -12 13 -17 13 -35 0 -12 -8
-34 -15 -49 -15 -58 -1 -88 4 -100 13 -10 8 -13 5 -13 -11 0 -19 -4 -22 -27
-20 -5 0 -7 7 -5 15 3 12 -1 13 -17 5 -44 -24 -65 -5 -31 29 9 8 11 12 6 8 -6
-5 -21 -8 -34 -8 -13 0 -32 -5 -43 -10 -14 -8 -19 -7 -19 2 -1 7 -10 2 -21
-11 -17 -21 -22 -23 -43 -12 -26 14 -57 16 -99 7 -19 -4 -26 -3 -22 4 3 5 13
10 21 10 9 0 14 6 11 13 -2 6 -11 11 -20 9 -8 -1 -18 2 -22 8 -3 5 -2 10 4 10
14 0 3 27 -14 34 -10 4 -12 -3 -8 -31 l6 -35 -36 23 c-19 13 -33 27 -31 31 3
5 1 8 -5 8 -5 0 -13 -5 -16 -10 -10 -16 -24 -2 -20 20 2 12 0 18 -6 15 -5 -4
-9 -13 -9 -20 0 -11 -6 -12 -25 -5 -14 5 -25 8 -25 5 0 -2 -14 0 -31 5 -23 7
-37 5 -53 -5 -21 -14 -24 -13 -34 10 -6 14 -19 25 -27 25 -9 0 -13 4 -10 10 8
13 -82 5 -99 -9 -8 -7 -23 -13 -34 -14 -13 -1 -18 -7 -14 -19 3 -14 0 -17 -12
-12 -18 7 -19 13 -7 33 5 7 13 11 19 7 15 -9 42 22 35 41 -4 9 -15 25 -25 35
-16 16 -22 17 -51 5 -17 -7 -49 -14 -70 -16 -37 -3 -38 -2 -25 19 11 17 20 20
51 16 23 -4 36 -2 32 4 -3 6 -15 10 -26 10 -10 0 -19 7 -19 15 0 17 -17 20
-22 4 -2 -6 -14 -8 -31 -4 -15 4 -24 11 -21 16 3 5 -2 6 -10 3 -16 -6 -46 17
-46 34 0 12 -57 36 -86 36 -19 0 -21 3 -11 14 6 8 -17 0 -52 -17 l-63 -32 28
40 c33 46 59 63 49 30 -6 -18 -5 -19 13 -8 18 11 18 14 3 31 -21 24 -36 23
-49 -4 -10 -22 -11 -22 -13 -3 -1 11 -1 23 0 28 2 11 -17 9 -24 -3 -3 -5 -11
-10 -17 -10 -6 0 -5 7 3 16 12 15 11 16 -9 9 -21 -6 -23 -5 -13 13 8 15 7 22
-2 30 -14 11 -48 12 -62 2 -5 -4 -23 -10 -38 -14 -26 -6 -27 -5 -17 13 5 11
15 23 20 26 6 4 8 11 4 16 -4 6 -11 6 -20 -2 -8 -6 -14 -8 -14 -3 0 4 -6 0
-13 -11 -9 -11 -19 -15 -27 -10 -8 5 -11 4 -6 -3 6 -10 -30 -28 -46 -24 -5 1
-8 -2 -8 -7 0 -5 -11 -4 -25 2 -24 12 -24 12 23 34 26 12 50 19 54 17 5 -3 8
0 8 5 0 6 3 11 8 10 4 -1 17 2 30 6 16 5 21 13 17 26 -4 12 -2 19 6 19 10 0
11 2 0 13 -6 6 -32 12 -56 12 -47 0 -49 -11 -3 -17 40 -5 20 -28 -27 -31 -25
-1 -39 3 -43 12 -3 8 0 11 7 7 7 -5 11 1 11 13 0 12 -6 21 -12 21 -9 0 -9 3 1
9 11 7 7 10 -15 13 -16 2 -30 9 -30 16 -1 6 -2 18 -3 25 0 6 -11 -4 -22 -23
-31 -50 -81 -112 -86 -106 -3 3 -7 20 -10 39 -4 29 1 38 27 61 17 14 26 26 20
26 -6 0 -8 5 -5 10 4 6 -3 9 -17 6 -13 -2 -28 1 -35 6 -7 6 -23 2 -44 -11
l-32 -20 -43 47 c-24 26 -43 52 -44 59 0 8 -14 3 -36 -12 -41 -28 -94 -34 -94
-11 0 19 -19 25 -54 15 -34 -10 -46 -5 -46 20 0 24 26 45 42 35 11 -7 48 -14
48 -8 0 4 -121 74 -128 74 -4 0 -12 -10 -17 -22 -8 -18 -18 -23 -44 -23 -20 0
-36 6 -39 14 -3 9 0 11 9 5 12 -7 12 -5 0 9 -18 23 -31 21 -31 -3z m3007 -773
c13 5 13 3 2 -16 -15 -23 -44 -29 -36 -7 4 10 -1 12 -16 9 -21 -4 -21 -4 3 17
21 19 26 20 28 7 2 -10 9 -14 19 -10z"/>
<path d="M351 5414 c0 -11 3 -14 6 -6 3 7 2 16 -1 19 -3 4 -6 -2 -5 -13z"/>
<path d="M465 5421 c-3 -5 -2 -12 3 -15 5 -3 9 1 9 9 0 17 -3 19 -12 6z"/>
<path d="M785 5420 c4 -6 11 -8 16 -5 14 9 11 15 -7 15 -8 0 -12 -5 -9 -10z"/>
<path d="M1535 5400 c3 -5 8 -10 11 -10 2 0 4 5 4 10 0 6 -5 10 -11 10 -5 0
-7 -4 -4 -10z"/>
<path d="M385 5390 c-3 -5 -1 -10 4 -10 6 0 11 5 11 10 0 6 -2 10 -4 10 -3 0
-8 -4 -11 -10z"/>
<path d="M1155 5390 c-3 -5 -1 -10 4 -10 6 0 11 5 11 10 0 6 -2 10 -4 10 -3 0
-8 -4 -11 -10z"/>
<path d="M570 5374 c0 -8 5 -12 10 -9 6 4 8 11 5 16 -9 14 -15 11 -15 -7z"/>
<path d="M1154 5352 c9 -15 48 -23 43 -9 -2 7 -14 14 -26 15 -13 2 -21 -1 -17
-6z"/>
<path d="M5470 5350 c-9 -6 -10 -10 -3 -10 6 0 15 5 18 10 8 12 4 12 -15 0z"/>
<path d="M5230 5340 c0 -5 7 -7 15 -4 8 4 15 8 15 10 0 2 -7 4 -15 4 -8 0 -15
-4 -15 -10z"/>
<path d="M895 5320 c-3 -5 -1 -10 4 -10 6 0 11 5 11 10 0 6 -2 10 -4 10 -3 0
-8 -4 -11 -10z"/>
<path d="M1125 5320 c3 -5 8 -10 11 -10 2 0 4 5 4 10 0 6 -5 10 -11 10 -5 0
-7 -4 -4 -10z"/>
<path d="M5166 5317 c-17 -13 -12 -14 47 -8 13 1 -3 21 -17 21 -7 0 -20 -6
-30 -13z"/>
<path d="M5795 5290 c-3 -5 -1 -10 4 -10 6 0 11 5 11 10 0 6 -2 10 -4 10 -3 0
-8 -4 -11 -10z"/>
<path d="M5205 5280 c-3 -5 -1 -10 4 -10 6 0 11 5 11 10 0 6 -2 10 -4 10 -3 0
-8 -4 -11 -10z"/>
<path d="M5681 5263 c6 -7 15 -13 20 -13 5 0 6 6 3 13 -3 8 -11 14 -19 14 -11
0 -12 -4 -4 -14z"/>
<path d="M6140 5261 c0 -5 -9 -13 -21 -16 -11 -4 -18 -9 -15 -13 8 -7 56 19
56 30 0 4 -4 8 -10 8 -5 0 -10 -4 -10 -9z"/>
<path d="M6015 5250 c3 -5 8 -10 11 -10 2 0 4 5 4 10 0 6 -5 10 -11 10 -5 0
-7 -4 -4 -10z"/>
<path d="M5466 5238 c3 -5 10 -6 15 -3 13 9 11 12 -6 12 -8 0 -12 -4 -9 -9z"/>
<path d="M5560 5240 c0 -5 7 -10 15 -10 8 0 15 5 15 10 0 6 -7 10 -15 10 -8 0
-15 -4 -15 -10z"/>
<path d="M5655 5241 c-3 -5 -1 -12 4 -16 6 -3 7 -13 4 -21 -4 -10 -9 -12 -16
-5 -6 6 -18 6 -33 -1 -29 -13 -26 -34 4 -30 11 2 23 -2 27 -8 9 -14 22 -13 22
3 0 6 4 29 8 50 7 35 -5 52 -20 28z"/>
<path d="M5735 5241 c3 -5 1 -12 -5 -16 -5 -3 -10 -13 -10 -22 0 -12 3 -13 14
-4 21 17 27 51 9 51 -8 0 -12 -4 -8 -9z"/>
<path d="M5776 5238 c3 -4 11 -8 19 -8 8 0 16 4 19 8 2 4 -6 8 -19 8 -13 0
-21 -4 -19 -8z"/>
<path d="M1125 5190 c3 -5 8 -10 11 -10 2 0 4 5 4 10 0 6 -5 10 -11 10 -5 0
-7 -4 -4 -10z"/>
<path d="M5797 5183 c-4 -3 -7 -11 -7 -17 0 -6 5 -5 12 2 6 6 9 14 7 17 -3 3
-9 2 -12 -2z"/>
<path d="M5887 5170 c3 -11 12 -20 19 -20 11 0 10 5 -3 20 -10 11 -18 20 -19
20 -1 0 0 -9 3 -20z"/>
<path d="M1720 5088 c0 -15 18 -17 30 -3 9 11 8 14 -9 12 -12 -1 -21 -5 -21
-9z"/>
</g>
</svg>
