<?xml version="1.0" standalone="no"?>
<!DOCTYPE svg PUBLIC "-//W3C//DTD SVG 20010904//EN"
 "http://www.w3.org/TR/2001/REC-SVG-20010904/DTD/svg10.dtd">
<svg version="1.0" xmlns="http://www.w3.org/2000/svg"
 width="1784.000000pt" height="1784.000000pt" viewBox="0 0 1784.000000 1784.000000"
 preserveAspectRatio="xMidYMid meet">
<metadata>
Created by potrace 1.14, written by Peter Selinger 2001-2017
</metadata>
<g transform="translate(0.000000,1784.000000) scale(0.100000,-0.100000)"
fill="#000000" stroke="none">
<path d="M8315 11802 c-60 -6 -105 -48 -105 -100 0 -11 -18 -34 -40 -52 -39
-32 -53 -54 -27 -44 24 9 37 -21 33 -77 -4 -48 -7 -54 -25 -52 -48 6 -95 60
-48 57 10 -1 13 4 9 15 -13 35 -30 41 -108 40 -50 -1 -79 3 -84 11 -5 9 -22 8
-71 -4 -128 -31 -294 -69 -443 -101 -90 -20 -256 -76 -256 -87 0 -4 14 -21 31
-37 l31 -30 -37 -15 c-56 -24 -101 8 -67 47 14 15 14 17 0 17 -23 0 -39 -25
-45 -70 -6 -40 -15 -46 -47 -34 -18 7 -21 36 -5 66 6 11 8 22 5 26 -10 9 -29
-15 -33 -40 -8 -56 -25 -87 -52 -96 -28 -10 -58 -1 -73 21 -7 11 -128 -41
-128 -55 0 -4 17 -15 37 -23 l36 -15 -26 -28 c-19 -19 -24 -31 -17 -38 8 -8
-1 -11 -26 -12 -65 -3 -127 -29 -254 -110 -30 -19 -70 -41 -87 -49 -18 -7 -33
-19 -33 -27 0 -16 -78 -106 -92 -106 -5 0 -16 -7 -25 -16 -14 -14 -14 -17 6
-30 24 -17 29 -64 6 -64 -7 0 -18 6 -22 13 -26 41 -68 51 -126 31 -23 -8 -59
-15 -79 -16 -21 0 -38 -3 -38 -7 0 -4 -18 -30 -40 -59 -39 -53 -39 -54 -22
-80 16 -25 14 -24 -26 8 -41 33 -44 34 -54 15 -23 -40 -87 -87 -200 -147 -65
-33 -131 -75 -148 -91 l-31 -30 33 -28 c18 -15 30 -30 26 -34 -4 -5 -39 -4
-78 2 -39 5 -72 7 -75 5 -2 -3 2 -20 10 -39 20 -47 19 -53 -7 -53 -21 -1 -21
-2 -5 -11 25 -15 21 -24 -20 -45 -91 -46 -198 -141 -314 -279 -131 -156 -268
-267 -382 -310 -47 -17 -55 -23 -38 -28 14 -3 19 -10 15 -20 -3 -9 7 -27 27
-46 17 -17 27 -32 20 -32 -16 -2 -20 -3 -84 -24 -49 -16 -57 -22 -53 -39 5
-21 -20 -86 -34 -86 -11 0 -22 -49 -14 -62 5 -7 11 -5 20 6 11 16 13 16 26 -2
12 -17 32 -29 51 -30 5 0 15 -9 24 -19 8 -10 12 -12 8 -5 -5 9 0 11 17 7 12
-3 33 -7 46 -8 12 0 22 -5 22 -9 0 -4 7 -4 17 -1 10 4 14 2 10 -4 -4 -6 3 -8
18 -5 14 2 25 0 25 -7 0 -6 7 -8 17 -4 10 4 14 2 10 -4 -5 -7 1 -9 15 -5 12 3
19 1 15 -4 -3 -6 3 -10 13 -11 10 -1 21 5 24 13 4 10 2 13 -7 8 -6 -4 -5 1 4
10 15 17 46 27 87 30 12 0 22 4 22 9 0 4 7 7 15 7 9 0 27 11 40 24 13 13 26
21 29 19 3 -3 1 9 -4 28 -14 46 -13 48 10 19 l20 -25 1 25 c1 14 1 30 0 37 -2
16 38 43 55 36 8 -3 14 0 14 6 0 6 5 11 11 11 5 0 7 -5 3 -12 -4 -7 -3 -8 5
-4 6 4 9 12 6 17 -3 5 5 21 19 36 22 24 27 25 43 12 16 -13 17 -12 5 2 -13 17
-9 24 28 44 12 7 13 6 5 -6 -5 -8 -1 -6 10 6 11 11 37 30 58 40 20 11 37 23
37 28 0 4 4 6 9 2 5 -3 15 1 23 8 7 7 29 22 48 34 l34 22 -28 11 c-34 13 -23
33 18 33 28 0 32 7 15 24 -8 8 -22 6 -50 -9 -22 -11 -47 -17 -56 -14 -14 6
-15 9 -4 15 7 5 21 6 31 4 19 -5 87 33 119 68 11 12 24 18 32 14 8 -5 10 -4 5
3 -10 16 35 42 75 43 53 2 61 0 53 -13 -5 -10 -4 -10 5 -2 18 17 23 54 5 47
-8 -3 -14 0 -14 7 0 6 -5 8 -11 4 -7 -4 -10 -1 -7 7 3 8 15 13 26 11 23 -3 30
12 11 24 -18 11 10 23 40 17 34 -6 36 -9 20 -30 -13 -17 -12 -17 8 0 12 11 23
14 27 8 4 -5 2 -12 -4 -16 -19 -12 -10 -20 21 -21 21 -1 27 1 18 7 -11 6 -10
9 3 14 8 3 24 21 34 40 10 19 23 31 28 27 6 -3 5 2 -3 11 -15 18 -26 23 -16 7
3 -5 -2 -10 -11 -10 -16 0 -16 1 1 20 10 11 22 17 27 14 4 -3 7 -1 6 4 -3 11
47 62 106 107 21 17 51 43 66 58 14 16 35 29 46 31 10 2 20 8 20 14 1 7 2 15
3 20 0 4 15 23 31 42 34 40 36 48 15 64 -14 10 -12 15 13 39 16 16 36 29 43
30 8 2 20 7 28 11 10 7 12 6 6 -4 -5 -8 6 -4 23 9 18 12 37 19 43 15 7 -4 9
-3 6 3 -4 6 2 18 13 28 11 10 17 21 15 26 -3 4 6 20 20 35 22 24 30 22 27 -7
-1 -3 10 -5 23 -3 14 1 25 -2 25 -7 0 -6 5 -7 10 -4 6 3 15 3 21 -1 8 -4 7 -9
-2 -15 -9 -5 -9 -9 -3 -9 28 0 63 94 46 124 -3 5 -6 25 -7 43 -1 27 2 32 14
28 31 -12 35 -9 32 24 -2 25 0 31 10 25 9 -5 11 -2 6 9 -3 9 -1 17 5 19 15 5
78 -56 78 -76 0 -13 8 -16 41 -14 40 2 62 19 122 99 18 25 68 29 94 7 18 -14
17 3 -2 29 -11 16 -12 22 -2 26 6 2 -1 4 -18 5 -16 0 -45 -7 -63 -15 -37 -17
-62 -6 -62 29 0 22 18 60 34 70 15 10 74 10 78 0 7 -18 143 -59 170 -52 20 6
28 4 33 -7 4 -12 12 -8 36 20 21 25 37 34 54 32 20 -2 25 2 25 19 0 12 9 29
20 39 17 14 18 21 10 37 -13 25 -16 25 -42 0 -33 -30 -38 -24 -22 23 20 57 47
88 88 97 l33 7 -8 -36 c-4 -19 -15 -41 -24 -47 -14 -10 -14 -12 0 -17 8 -4 14
-1 12 6 -1 7 4 11 11 10 6 -2 21 6 32 17 20 20 47 19 35 -1 -4 -5 -1 -9 5 -9
6 0 8 -5 5 -10 -4 -6 -12 -7 -18 -4 -8 5 -8 3 0 -6 11 -11 5 -19 -31 -39 -53
-32 -76 -55 -76 -75 0 -23 13 -20 40 9 13 14 30 23 37 21 7 -3 13 1 13 8 0 21
23 35 61 38 24 2 41 12 56 32 l22 29 7 -28 7 -27 15 33 c16 33 16 33 23 8 3
-13 2 -29 -3 -35 -5 -7 -3 -14 7 -18 9 -3 13 -2 10 3 -8 13 24 29 46 24 10 -3
16 -10 12 -16 -4 -6 -1 -7 8 -1 7 4 28 7 45 5 18 -1 34 2 37 7 3 4 -7 6 -24 4
-26 -4 -31 0 -45 34 -9 22 -21 42 -28 46 -7 5 -3 15 13 30 19 18 22 19 18 5
-6 -16 -5 -16 17 -1 25 16 37 9 42 -24 2 -8 6 -17 10 -20 4 -4 4 1 1 11 -4 9
-3 17 2 17 14 0 29 -24 26 -43 -3 -14 0 -16 10 -7 10 9 20 8 37 -1 13 -7 27
-12 32 -11 4 2 15 -3 24 -10 10 -8 13 -9 9 -1 -4 7 0 13 10 16 17 4 17 5 1 6
-10 0 -18 5 -18 11 0 5 -5 9 -12 7 -6 -1 -14 6 -16 16 -2 11 3 17 13 17 9 0
13 -4 10 -10 -3 -6 1 -7 10 -4 9 4 34 1 55 -6 32 -11 42 -11 55 0 21 17 19 24
-10 40 -14 7 -25 18 -25 25 0 12 39 13 59 1 10 -7 11 -4 3 11 -6 11 -7 25 -2
33 5 8 7 17 4 21 -2 4 4 13 13 20 15 12 16 12 10 -3 -3 -10 -2 -18 3 -18 6 0
10 -10 11 -22 0 -13 3 -17 6 -10 2 6 15 12 29 12 24 0 37 25 38 79 1 15 9 27
25 32 22 9 23 8 17 -22 -3 -17 -6 -38 -6 -46 0 -8 -4 -12 -8 -9 -4 2 -9 -5 -9
-16 -2 -19 -1 -19 11 -3 7 10 18 15 25 11 7 -4 10 -2 9 5 -2 6 2 13 8 16 7 2
10 -9 9 -31 -3 -26 0 -33 11 -29 8 3 14 9 14 13 0 4 12 15 26 25 18 11 24 12
18 4 -6 -12 -5 -12 9 0 9 7 18 11 18 7 1 -3 2 -10 3 -15 0 -5 4 -13 8 -17 4
-3 5 3 3 15 -3 16 1 22 13 20 30 -3 35 1 23 15 -25 30 3 96 41 96 16 0 19 -5
14 -24 -6 -26 17 -56 29 -36 4 6 1 9 -6 8 -6 -2 -13 2 -16 8 -2 7 5 10 20 7
19 -4 23 -10 19 -25 -6 -25 -25 -32 -49 -20 -16 9 -18 6 -17 -21 0 -17 6 -33
13 -35 9 -3 9 -8 -1 -20 -11 -15 -11 -15 3 -5 9 7 33 14 55 15 40 3 61 17 42
29 -6 4 8 25 37 53 48 46 67 52 58 18 -3 -12 1 -19 11 -19 8 0 13 4 10 9 -3 4
2 8 11 8 9 0 13 5 10 10 -3 6 -1 10 6 10 12 0 7 -88 -7 -112 -4 -7 2 -5 13 5
11 9 23 17 28 17 5 0 16 7 26 16 11 10 19 12 24 5 3 -6 0 -11 -7 -12 -7 0 -2
-4 10 -10 13 -5 26 -18 29 -30 5 -16 11 -19 30 -14 15 3 22 2 19 -4 -4 -5 -1
-13 5 -17 7 -4 9 -3 6 2 -3 6 -3 15 1 21 13 20 113 73 137 73 25 0 33 -14 15
-25 -6 -4 -8 -11 -5 -16 4 -5 1 -9 -6 -9 -10 0 -10 -3 -1 -12 10 -9 16 -8 30
6 9 11 11 16 5 12 -8 -4 -13 -1 -13 8 0 9 4 16 10 16 5 0 6 8 3 17 -5 13 -2
15 11 10 10 -4 15 -3 11 3 -7 11 18 14 29 3 3 -4 12 -8 19 -10 7 -1 19 -4 27
-5 8 -2 20 -6 25 -9 19 -12 90 -6 113 9 12 8 24 13 25 11 23 -41 27 -52 21
-61 -4 -6 -3 -8 3 -5 14 9 24 -17 12 -32 -5 -6 1 -2 13 9 19 17 21 23 11 64
-9 39 -8 48 8 62 10 9 23 13 28 9 6 -3 11 -1 11 4 0 18 29 12 38 -6 5 -10 7
-32 5 -50 -4 -30 -2 -32 25 -30 21 1 28 6 24 16 -4 10 -1 13 11 8 10 -4 16 -2
14 6 -1 7 6 11 15 11 10 -1 16 2 13 6 -3 4 2 11 11 14 9 3 12 2 8 -5 -3 -6 4
-5 16 3 19 11 23 11 36 -7 8 -11 17 -18 20 -17 3 2 9 1 12 -3 4 -4 -8 -5 -27
-3 -23 2 -36 -2 -39 -11 -3 -8 0 -11 7 -7 10 6 15 -6 12 -26 0 -5 2 -7 7 -5 4
1 9 -2 11 -8 4 -8 -49 -46 -81 -57 -10 -4 2 -48 13 -48 5 0 9 8 9 19 0 10 7
24 15 31 20 17 90 29 107 19 7 -5 16 -3 20 4 6 9 8 9 8 0 0 -9 9 -8 35 3 20 8
41 12 47 8 8 -5 9 -2 5 9 -3 10 -2 17 4 17 6 0 7 5 3 12 -5 7 -3 8 6 3 10 -6
12 -3 7 11 -7 18 -6 18 8 -1 9 -11 11 -21 6 -23 -14 -5 -2 -32 14 -32 14 0 60
49 67 72 4 10 9 10 24 -2 17 -14 18 -14 6 2 -11 14 -10 18 5 27 26 13 68 -8
68 -34 0 -16 7 -20 33 -21 17 0 32 3 32 8 0 4 7 8 15 8 8 0 15 -8 15 -18 0
-15 7 -18 35 -16 26 2 34 0 28 -9 -4 -7 0 -7 10 2 10 8 17 9 17 3 0 -6 -4 -14
-10 -17 -5 -3 -10 -11 -10 -18 0 -6 10 2 22 19 22 31 79 74 98 74 6 0 8 -5 5
-10 -4 -6 -12 -7 -18 -4 -9 5 -9 4 -1 -5 9 -10 17 -10 32 -2 24 13 42 14 42 3
0 -18 -42 -52 -65 -52 -30 0 -35 -8 -28 -43 5 -24 9 -27 39 -25 19 1 34 6 34
11 0 4 10 7 23 5 16 -2 21 -9 19 -23 -2 -16 -1 -17 7 -5 8 12 13 12 22 3 10
-10 6 -14 -19 -19 -40 -8 -43 -39 -7 -78 14 -15 22 -32 19 -38 -4 -7 -2 -8 5
-4 13 8 44 -12 36 -23 -2 -4 2 -8 10 -8 10 0 11 6 4 25 -5 13 -6 28 -3 34 4 7
2 8 -4 4 -8 -5 -12 1 -13 16 0 13 -2 34 -4 48 -1 14 2 34 7 44 9 16 7 18 -7
12 -25 -9 -36 2 -22 24 16 27 35 25 42 -3 6 -23 13 -26 68 -28 19 0 27 -6 27
-18 0 -20 23 -45 33 -35 3 3 14 1 24 -5 10 -6 13 -11 7 -11 -6 0 -11 -6 -11
-12 0 -7 -4 -20 -7 -29 -8 -19 30 -34 41 -17 4 7 1 8 -8 3 -8 -4 4 8 26 28 22
20 42 36 45 37 22 1 43 -101 26 -129 -6 -9 23 -25 30 -18 2 2 5 22 6 45 2 49
29 68 65 44 13 -8 21 -17 18 -21 -2 -4 9 -5 26 -3 17 3 29 0 29 -7 0 -6 5 -11
11 -11 5 0 7 5 3 12 -4 6 -3 9 2 6 5 -3 34 -2 64 2 59 8 86 -2 60 -23 -17 -14
-24 -37 -11 -37 5 0 14 7 21 15 13 16 45 21 35 6 -3 -6 3 -9 14 -8 11 0 17 5
15 9 -3 4 0 8 6 8 6 0 9 4 5 9 -5 9 26 32 48 37 4 1 10 3 15 4 4 1 10 2 15 1
4 0 7 4 7 10 0 5 5 7 11 4 6 -4 8 -9 5 -12 -3 -3 2 -12 10 -20 8 -8 12 -19 9
-24 -4 -5 -1 -9 5 -9 6 0 15 -11 21 -24 12 -26 44 -45 72 -40 9 1 17 -1 17 -5
0 -4 -8 -16 -17 -27 -22 -25 -30 -53 -11 -37 21 18 81 20 96 3 9 -10 11 -10 6
-1 -3 7 0 17 7 22 9 5 16 3 21 -9 5 -13 7 -14 7 -2 1 9 20 22 45 31 42 15 44
15 41 -2 -2 -10 0 -18 5 -16 5 1 16 -7 24 -18 l15 -20 1 20 c0 26 46 69 61 59
8 -4 9 -3 5 4 -4 7 4 14 21 18 15 4 41 13 56 21 25 12 28 19 24 49 -3 19 -1
37 4 40 5 3 9 -1 9 -8 0 -10 2 -10 9 1 6 9 11 10 15 2 5 -8 13 -8 27 -1 13 8
19 7 19 0 0 -6 5 -8 10 -5 6 3 10 1 10 -5 0 -6 -7 -13 -16 -17 -11 -4 -14 -13
-9 -31 5 -19 -1 -32 -26 -58 -31 -32 -50 -43 -48 -26 5 29 -2 44 -18 37 -10
-4 -23 -8 -30 -8 -7 0 -10 -4 -8 -8 3 -4 -8 -19 -25 -32 -27 -23 -44 -67 -20
-52 6 3 10 2 10 -4 0 -5 -6 -12 -12 -15 -7 -4 -3 -4 9 -2 25 4 40 -8 23 -19
-5 -3 -10 -15 -10 -26 0 -11 4 -18 9 -14 13 7 52 -45 44 -58 -3 -5 -1 -7 5 -3
6 3 17 -2 24 -13 9 -13 24 -18 50 -17 20 0 34 4 32 8 -4 6 127 53 181 63 17 4
56 9 89 12 48 4 57 3 50 -8 -6 -11 -3 -10 10 1 17 13 18 13 14 -5 -2 -11 -9
-19 -15 -18 -7 2 -15 -6 -18 -17 -4 -11 -11 -17 -17 -14 -7 4 -8 2 -4 -4 4 -6
-3 -31 -16 -54 -19 -37 -23 -40 -26 -20 -3 21 -11 24 -59 25 -13 0 -23 4 -23
10 0 5 -5 5 -13 -2 -8 -6 -16 -9 -18 -7 -9 9 -59 15 -54 6 8 -13 -6 -41 -18
-33 -5 3 -7 2 -4 -4 3 -5 39 -8 79 -7 l73 3 -1 -45 c0 -31 3 -44 13 -44 8 0
16 7 20 15 3 9 19 23 36 31 24 13 31 14 38 2 5 -7 9 -8 9 -3 0 6 5 3 10 -5 8
-12 10 -12 10 -1 0 11 4 11 23 -1 12 -8 32 -13 44 -12 14 1 20 -3 16 -12 -3
-8 -10 -11 -16 -7 -5 3 -7 1 -4 -4 4 -6 0 -14 -9 -17 -23 -9 -46 -7 -40 3 4 5
-3 7 -13 4 -35 -9 -13 -36 23 -29 17 4 39 8 48 9 9 1 14 5 12 9 -6 9 57 27 70
20 5 -3 0 -9 -12 -13 -23 -9 -30 -29 -11 -29 5 0 7 5 4 10 -3 6 3 10 15 10 13
0 19 -4 14 -12 -4 -6 -3 -8 3 -5 15 9 46 -17 50 -42 2 -12 -1 -20 -5 -17 -5 3
-9 -1 -9 -9 0 -8 2 -13 5 -10 7 7 62 -24 62 -36 0 -6 4 -8 9 -4 5 3 15 0 23
-7 12 -12 23 -16 53 -22 6 -1 20 -7 31 -14 12 -6 24 -8 28 -5 3 3 6 2 6 -4 0
-11 52 -9 100 2 l25 7 -25 -24 c-14 -14 -28 -23 -31 -21 -4 1 -9 -6 -12 -16
-3 -14 0 -19 13 -18 10 1 16 5 13 11 -4 5 1 7 10 3 10 -3 17 -3 17 1 0 5 15
16 34 25 26 12 36 13 40 4 2 -7 5 -4 5 7 1 12 6 16 17 12 8 -3 12 -2 9 3 -7
12 31 25 45 16 6 -4 7 1 3 11 -5 13 -3 16 10 11 9 -3 17 -3 17 2 0 5 27 22 60
39 62 31 69 32 47 10 -7 -7 -23 -30 -36 -51 -12 -20 -27 -35 -32 -32 -5 4 -6
-1 -3 -9 4 -10 1 -16 -7 -16 -7 0 -10 -3 -6 -6 14 -14 -104 -134 -132 -134
-26 0 -26 0 5 60 21 40 29 48 40 40 10 -10 11 -7 1 14 -7 14 -16 26 -20 26 -5
0 -5 -4 -2 -10 3 -5 0 -10 -8 -10 -8 0 -18 -7 -21 -16 -4 -9 -13 -14 -22 -10
-8 3 -12 2 -9 -4 6 -9 -34 -36 -48 -32 -5 1 -6 -2 -3 -7 4 -5 -4 -17 -16 -25
-26 -19 -20 -20 18 -6 24 10 30 8 51 -16 13 -15 23 -30 23 -34 0 -10 48 -30
71 -30 11 0 18 4 14 9 -3 5 -1 12 5 16 6 4 8 10 5 15 -2 4 4 19 15 33 11 14
20 30 20 35 0 5 6 12 14 15 11 5 13 -3 11 -36 -2 -23 1 -61 7 -83 8 -33 14
-41 28 -37 10 3 17 10 14 16 -4 14 67 67 91 67 12 0 5 -14 -26 -50 -23 -27
-45 -48 -49 -45 -4 2 -7 -2 -7 -9 0 -8 10 -13 23 -12 12 0 21 3 19 6 -2 3 21
13 51 22 l55 16 -18 -22 c-10 -11 -22 -24 -28 -28 -5 -4 -7 -8 -3 -8 4 0 0
-16 -8 -35 -14 -33 -13 -35 6 -35 11 0 25 -9 32 -20 7 -11 18 -20 25 -20 7 0
17 -8 22 -17 6 -11 11 -13 11 -5 0 8 5 10 13 6 6 -4 4 2 -5 13 -21 23 -24 40
-5 26 6 -6 20 -9 30 -8 9 2 17 -1 17 -7 0 -7 5 -7 13 1 8 6 17 8 20 4 4 -3 7
-1 7 6 0 8 7 11 15 7 8 -3 15 -1 15 4 0 9 69 36 83 32 4 -1 7 3 7 8 0 12 76
14 83 3 3 -5 -15 -28 -39 -53 -41 -42 -75 -112 -61 -126 3 -3 20 4 37 16 17
12 37 19 45 16 10 -3 12 0 8 11 -5 12 -2 15 10 10 9 -3 16 -3 14 1 -1 4 1 7 4
7 4 0 16 8 26 18 11 9 23 14 26 10 4 -3 7 -1 7 6 0 7 5 9 10 6 6 -3 10 -2 10
4 0 15 67 44 81 35 8 -4 9 -3 5 5 -4 6 0 13 11 17 10 3 26 10 37 15 13 8 16 7
11 -1 -4 -6 -1 -9 7 -8 7 2 12 -3 10 -10 -1 -8 2 -11 8 -7 8 5 7 11 -1 21 -6
8 -8 18 -4 22 4 4 10 1 12 -5 4 -10 8 -9 20 2 8 8 25 15 39 15 19 0 24 -5 24
-24 0 -21 4 -23 35 -21 20 1 38 -1 40 -5 4 -7 -111 -63 -170 -83 -16 -5 -34
-13 -40 -17 -11 -8 -174 -71 -190 -74 -5 -1 -14 -4 -20 -8 -5 -3 -24 -9 -41
-12 -28 -6 -30 -10 -26 -39 3 -18 12 -37 21 -44 21 -16 2 -35 -34 -35 l-26 0
23 -27 c13 -14 28 -29 35 -34 7 -4 19 -15 29 -24 15 -15 17 -15 26 1 8 14 13
15 24 5 12 -10 13 -9 8 5 -5 14 2 16 53 16 37 0 67 6 79 15 10 8 17 15 14 16
-12 3 -69 8 -122 11 -58 3 -78 21 -40 35 9 4 23 13 31 21 7 7 20 11 28 8 8 -3
12 -2 8 3 -7 12 78 38 127 40 52 2 101 -24 89 -47 -10 -19 -61 -69 -61 -60 0
4 -14 -7 -30 -24 -35 -35 -35 -35 -12 -35 57 1 80 -5 86 -19 5 -13 2 -15 -14
-11 -11 3 -20 1 -20 -5 0 -5 -4 -6 -10 -3 -5 3 -10 2 -10 -4 0 -18 22 -24 80
-22 60 2 88 -14 76 -44 -3 -8 -1 -15 5 -15 7 0 10 -19 7 -49 -4 -60 10 -58 41
7 35 72 82 143 92 136 5 -3 6 3 2 12 -5 14 -3 16 11 11 10 -4 15 -3 11 3 -3 5
1 22 9 37 8 16 16 24 16 18 0 -5 6 0 13 11 24 42 77 95 89 88 6 -4 8 -3 5 3
-4 6 0 16 8 23 12 10 16 7 25 -16 6 -15 9 -33 6 -40 -3 -7 -1 -14 5 -16 5 -2
11 -19 13 -39 2 -20 6 -41 9 -46 18 -28 -50 -116 -89 -116 -8 0 -12 -2 -9 -5
2 -3 -13 -17 -34 -33 -65 -47 -63 -58 7 -32 14 6 16 -13 2 -22 -6 -4 -9 -19
-8 -35 2 -26 4 -28 18 -15 19 17 60 20 60 5 0 -5 5 -10 11 -10 5 0 7 5 4 10
-3 6 -1 10 6 10 9 0 9 3 0 14 -10 12 -8 13 9 9 11 -3 19 -8 16 -10 -2 -3 10
-18 27 -34 l31 -30 31 31 c17 17 34 27 38 24 4 -4 7 -2 7 5 0 10 36 30 65 35
6 1 15 4 20 8 6 3 26 9 45 13 34 7 34 6 15 -10 -11 -9 -14 -14 -7 -10 9 5 11
0 7 -17 -5 -20 1 -31 34 -57 22 -19 38 -37 35 -42 -3 -5 0 -9 6 -9 14 0 86
-72 82 -83 -1 -5 2 -6 8 -2 13 8 42 -14 34 -26 -3 -5 0 -9 5 -9 14 0 14 -43 1
-56 -6 -6 2 -9 20 -9 17 0 30 4 30 8 0 5 5 5 10 2 6 -3 10 -16 10 -27 0 -18
-5 -20 -34 -15 -28 4 -35 2 -44 -18 -10 -22 -10 -23 14 -10 15 7 48 11 86 8
75 -4 88 0 81 26 -4 17 -63 49 -63 34 0 -3 -6 -1 -12 4 -7 5 -25 8 -40 7 -20
-2 -25 1 -21 12 3 8 8 12 11 9 3 -2 11 4 19 15 18 25 78 54 94 44 7 -4 9 -3 6
3 -7 11 12 22 48 28 72 13 95 14 95 5 0 -6 5 -10 11 -10 5 0 7 5 4 10 -8 13 6
13 39 1 13 -6 24 -16 22 -23 -3 -23 -17 -38 -29 -32 -7 4 -3 -2 8 -12 10 -11
27 -21 37 -22 50 -5 75 -5 97 2 18 6 22 5 17 -5 -4 -8 -1 -6 8 5 9 11 22 16
31 12 9 -3 14 -2 11 3 -3 5 3 11 14 14 22 6 71 -4 67 -14 -1 -3 6 -13 15 -22
14 -15 15 -23 6 -50 -7 -17 -16 -37 -22 -43 -6 -6 -22 -25 -35 -42 -38 -51
-65 -40 -117 46 -13 21 -24 30 -24 21 0 -9 7 -22 15 -29 36 -30 -36 -36 -75
-6 -13 10 -13 9 0 -9 27 -36 34 -41 125 -89 85 -46 135 -78 135 -88 0 -5 5 -6
10 -3 6 3 14 -4 19 -17 6 -13 10 -17 10 -9 1 12 4 11 14 -3 9 -12 21 -16 41
-12 44 8 78 46 42 46 -22 0 -29 19 -15 36 7 9 23 14 35 11 13 -2 22 1 21 7 -1
6 3 10 10 9 7 -2 10 3 7 11 -6 16 21 24 99 30 38 3 53 0 67 -14 10 -10 21 -16
24 -13 3 4 6 3 6 -2 0 -4 -8 -14 -17 -22 -10 -8 -12 -12 -5 -8 6 3 12 4 12 0
0 -3 -6 -14 -12 -25 -11 -17 -10 -22 2 -30 8 -5 11 -10 5 -11 -5 0 1 -4 15 -8
34 -10 47 -4 64 31 14 26 14 28 1 18 -9 -8 -15 -8 -15 -2 0 6 -3 18 -7 28 -5
14 -2 16 15 12 12 -4 20 -2 17 3 -9 13 104 42 141 36 25 -4 34 -2 34 8 0 8 -4
17 -10 20 -5 3 -10 16 -10 28 0 20 0 20 -14 2 -13 -18 -18 -18 -66 -6 -44 11
-54 11 -61 0 -7 -11 -9 -11 -9 2 0 9 -13 33 -30 54 -16 21 -30 44 -30 53 0 12
-3 12 -15 2 -13 -10 -19 -9 -36 6 -17 16 -19 16 -13 1 3 -9 2 -17 -4 -17 -5 0
-7 -11 -5 -24 7 -35 -24 -47 -107 -44 -72 2 -81 7 -55 28 21 18 13 22 -19 11
-26 -10 -26 -10 -26 39 0 38 5 52 21 63 21 15 21 15 1 21 -11 4 -32 23 -47 42
-31 41 -55 52 -128 59 -87 8 -121 16 -132 30 -10 13 -69 34 -145 53 -26 7 -34
14 -33 28 1 10 -7 30 -18 44 l-20 25 6 -39 6 -38 -28 20 c-30 22 -66 76 -56
85 3 4 18 0 34 -9 33 -16 38 -6 11 19 -21 19 -67 24 -56 6 11 -18 -66 -1 -98
22 -22 16 -25 24 -19 42 8 19 1 29 -41 70 -28 26 -58 47 -67 47 -11 0 -16 9
-17 30 -2 44 -28 67 -139 121 -98 47 -100 48 -117 29 -20 -24 -26 -24 -67 -4
-18 9 -56 22 -84 30 -52 14 -52 14 -74 -13 l-23 -28 -34 19 c-19 10 -46 35
-59 55 -13 20 -39 51 -58 70 -19 19 -26 31 -16 28 42 -15 -2 48 -46 66 -18 7
-66 19 -107 27 -62 10 -80 18 -105 44 -16 18 -38 35 -48 39 -11 4 -21 16 -24
26 -4 16 -31 28 -75 35 -9 1 -10 14 -2 40 3 10 1 23 -4 28 -8 8 -17 0 -32 -24
-27 -46 -76 -58 -75 -19 0 18 -7 26 -25 31 -18 4 -26 14 -28 33 -3 20 -9 27
-25 26 -12 0 -52 3 -89 6 -56 6 -72 4 -94 -10 -15 -9 -24 -12 -20 -7 7 12 -40
52 -60 52 -18 0 -17 4 1 39 l14 29 -63 -22 -64 -23 -5 23 c-5 29 20 81 41 87
10 3 -13 6 -50 7 -38 1 -74 3 -80 4 -7 1 -25 -1 -40 -5 -27 -7 -39 3 -18 16
23 14 7 25 -40 25 -48 0 -49 1 -55 33 -4 19 -19 45 -34 59 -26 25 -195 138
-206 138 -13 0 -153 110 -173 135 -20 25 -22 26 -29 9 -12 -35 -26 -33 -46 7
-15 31 -24 38 -38 34 -14 -5 -19 -1 -19 14 0 11 5 23 10 26 13 8 13 25 -1 25
-6 0 -34 16 -61 36 -43 32 -54 36 -91 31 l-42 -6 28 25 c15 13 23 25 18 25 -6
1 -16 2 -23 3 -23 2 -18 22 9 33 28 11 27 11 -12 12 -51 1 -93 -24 -143 -88
l-39 -49 -20 26 c-19 25 -22 26 -58 15 -41 -13 -60 -9 -35 7 10 6 11 10 3 10
-7 0 -10 7 -7 15 4 8 16 15 27 15 21 0 21 0 2 14 -74 51 -112 65 -183 64 -57
0 -79 4 -109 22 -21 12 -55 28 -75 36 -31 11 -36 11 -32 -1 6 -14 -24 -35 -48
-35 -8 0 -24 9 -36 20 -12 11 -26 20 -32 20 -5 0 -10 4 -10 10 0 19 -56 60
-82 60 -16 0 -42 13 -63 31 -32 28 -35 29 -35 11 0 -12 -11 -34 -25 -49 l-25
-28 -30 35 c-17 19 -43 50 -59 68 -17 19 -38 32 -52 32 -18 0 -20 -3 -11 -12
16 -16 15 -28 -2 -28 -16 0 -24 18 -32 69 -8 45 -12 65 -14 69 -3 2 -4 6 -13
55 -5 20 -13 37 -20 38 -7 0 0 6 15 13 l28 12 -29 17 -29 17 -24 -47 c-17 -36
-29 -49 -48 -50 -14 -1 -19 0 -12 3 6 3 10 10 7 15 -3 5 -1 18 5 30 16 30 4
68 -24 75 -12 3 -52 -2 -87 -11 -73 -19 -129 -21 -158 -5 -19 9 -21 8 -21 -13
0 -56 -51 -59 -110 -7 -66 58 -109 70 -146 39 -11 -9 -14 -8 -14 4 0 8 7 18
16 21 9 4 14 9 10 13 -3 3 -14 -1 -23 -9 -10 -8 -48 -20 -86 -26 -37 -6 -81
-18 -99 -26 -39 -20 -38 -20 -38 2 0 10 -11 29 -24 41 -22 21 -31 23 -83 17
-32 -3 -74 -11 -93 -16 -61 -18 -98 -1 -91 42 2 15 -35 25 -93 26 -34 1 -62 6
-67 13 -4 8 -25 10 -59 7 -41 -4 -58 -12 -86 -39 -19 -18 -35 -29 -35 -23 -1
5 -2 16 -3 24 -1 15 -92 41 -124 35 -9 -2 -22 -4 -28 -4 -7 -1 -35 -17 -64
-36 -61 -41 -70 -43 -70 -12 0 17 -6 23 -25 25 -13 1 -56 10 -94 21 -71 20
-180 22 -230 6 -17 -6 -22 -5 -17 3 5 9 0 9 -21 1 -37 -14 -110 -13 -203 3
-41 7 -88 12 -105 10z m-1445 -566 c0 -3 -4 -8 -10 -11 -5 -3 -10 -1 -10 4 0
6 5 11 10 11 6 0 10 -2 10 -4z m4896 -513 c-4 -4 -11 -1 -16 7 -16 25 -11 35
7 17 9 -9 13 -20 9 -24z"/>
<path d="M8359 11283 c0 -5 -2 -16 -4 -26 -2 -11 -1 -16 3 -13 8 8 14 46 7 46
-3 0 -5 -3 -6 -7z"/>
<path d="M8126 11242 c-3 -5 1 -9 9 -9 8 0 12 4 9 9 -3 4 -7 8 -9 8 -2 0 -6
-4 -9 -8z"/>
<path d="M8547 11219 c7 -7 15 -10 18 -7 3 3 -2 9 -12 12 -14 6 -15 5 -6 -5z"/>
<path d="M9320 11220 c-9 -6 -10 -10 -3 -10 6 0 15 5 18 10 8 12 4 12 -15 0z"/>
<path d="M9220 11200 c-9 -6 -10 -10 -3 -10 6 0 15 5 18 10 8 12 4 12 -15 0z"/>
<path d="M8915 11182 c3 -3 -1 -12 -7 -21 -8 -10 -4 -9 10 3 26 23 26 23 7 23
-8 0 -13 -3 -10 -5z"/>
<path d="M9485 11180 c-3 -6 1 -7 9 -4 18 7 21 14 7 14 -6 0 -13 -4 -16 -10z"/>
<path d="M9235 11169 c-4 -6 -5 -12 -2 -15 2 -3 7 2 10 11 7 17 1 20 -8 4z"/>
<path d="M10206 11165 c-18 -14 -18 -14 1 -12 11 0 20 7 20 14 0 7 -1 13 -1
13 -1 0 -9 -7 -20 -15z"/>
<path d="M8855 11159 c-3 -4 2 -6 10 -5 21 3 28 13 10 13 -9 0 -18 -4 -20 -8z"/>
<path d="M9955 11150 c10 -11 20 -20 23 -20 3 0 -3 9 -13 20 -10 11 -20 20
-23 20 -3 0 3 -9 13 -20z"/>
<path d="M10036 11153 c-6 -14 -5 -15 5 -6 7 7 10 15 7 18 -3 3 -9 -2 -12 -12z"/>
<path d="M9130 11139 c0 -5 5 -7 10 -4 6 3 10 8 10 11 0 2 -4 4 -10 4 -5 0
-10 -5 -10 -11z"/>
<path d="M9175 11140 c3 -5 8 -10 11 -10 2 0 4 5 4 10 0 6 -5 10 -11 10 -5 0
-7 -4 -4 -10z"/>
<path d="M9892 11110 c0 -14 2 -19 5 -12 2 6 2 18 0 25 -3 6 -5 1 -5 -13z"/>
<path d="M10166 11122 c-3 -5 1 -9 9 -9 8 0 15 4 15 9 0 4 -4 8 -9 8 -6 0 -12
-4 -15 -8z"/>
<path d="M8026 11102 c-3 -5 1 -9 9 -9 8 0 12 4 9 9 -3 4 -7 8 -9 8 -2 0 -6
-4 -9 -8z"/>
<path d="M9350 11087 c0 -20 4 -23 25 -19 14 2 25 6 25 7 0 1 -11 10 -25 19
-24 16 -25 16 -25 -7z"/>
<path d="M9590 11100 c0 -5 5 -10 11 -10 5 0 7 5 4 10 -3 6 -8 10 -11 10 -2 0
-4 -4 -4 -10z"/>
<path d="M9595 11060 c-3 -5 -1 -10 4 -10 6 0 11 5 11 10 0 6 -2 10 -4 10 -3
0 -8 -4 -11 -10z"/>
<path d="M9650 11065 c0 -7 30 -13 34 -7 3 4 -4 9 -15 9 -10 1 -19 0 -19 -2z"/>
<path d="M7294 11046 c1 -8 5 -18 8 -22 4 -3 5 1 4 10 -1 8 -5 18 -8 22 -4 3
-5 -1 -4 -10z"/>
<path d="M10471 11047 c-8 -10 -7 -14 2 -14 8 0 14 6 14 14 0 7 -1 13 -2 13
-2 0 -8 -6 -14 -13z"/>
<path d="M7690 11019 c0 -5 5 -7 10 -4 6 3 10 8 10 11 0 2 -4 4 -10 4 -5 0
-10 -5 -10 -11z"/>
<path d="M7908 11019 c7 -9 10 -25 6 -35 -5 -18 -5 -18 6 0 10 15 9 21 -6 35
-16 14 -17 14 -6 0z"/>
<path d="M10655 10940 c3 -5 8 -10 11 -10 2 0 4 5 4 10 0 6 -5 10 -11 10 -5 0
-7 -4 -4 -10z"/>
<path d="M10470 10933 c1 -18 18 -35 24 -24 4 6 4 16 1 21 -7 12 -25 13 -25 3z"/>
<path d="M10906 10898 c3 -4 9 -8 15 -8 5 0 9 4 9 8 0 5 -7 9 -15 9 -8 0 -12
-4 -9 -9z"/>
<path d="M11743 10895 c-34 -14 -43 -25 -20 -25 6 0 23 9 37 20 30 23 26 24
-17 5z"/>
<path d="M10870 10880 c0 -5 5 -10 11 -10 5 0 7 5 4 10 -3 6 -8 10 -11 10 -2
0 -4 -4 -4 -10z"/>
<path d="M11015 10860 c3 -5 8 -10 11 -10 2 0 4 5 4 10 0 6 -5 10 -11 10 -5 0
-7 -4 -4 -10z"/>
<path d="M6870 10857 c0 -2 6 -10 14 -16 11 -9 16 -9 22 1 4 7 4 10 -1 6 -4
-4 -14 -3 -22 3 -7 6 -13 9 -13 6z"/>
<path d="M6867 10819 c7 -7 15 -10 18 -7 3 3 -2 9 -12 12 -14 6 -15 5 -6 -5z"/>
<path d="M6996 10807 c3 -10 9 -15 12 -12 3 3 0 11 -7 18 -10 9 -11 8 -5 -6z"/>
<path d="M7029 10797 c6 -8 7 -18 3 -22 -4 -5 -1 -5 6 -1 10 6 10 11 1 22 -6
8 -14 14 -16 14 -3 0 0 -6 6 -13z"/>
<path d="M7066 10782 c-3 -5 1 -9 9 -9 8 0 15 4 15 9 0 4 -4 8 -9 8 -6 0 -12
-4 -15 -8z"/>
<path d="M11436 10778 c3 -5 10 -6 15 -3 13 9 11 12 -6 12 -8 0 -12 -4 -9 -9z"/>
<path d="M11436 10747 c3 -10 9 -15 12 -12 3 3 0 11 -7 18 -10 9 -11 8 -5 -6z"/>
<path d="M11585 10740 c-3 -5 -1 -10 4 -10 6 0 11 5 11 10 0 6 -2 10 -4 10 -3
0 -8 -4 -11 -10z"/>
<path d="M11545 10731 c-6 -11 13 -26 22 -17 4 3 1 6 -6 6 -7 0 -9 5 -6 10 3
6 4 10 1 10 -3 0 -7 -4 -11 -9z"/>
<path d="M6674 10640 c0 -13 4 -16 10 -10 7 7 7 13 0 20 -6 6 -10 3 -10 -10z"/>
<path d="M12006 10642 c-3 -5 1 -9 9 -9 8 0 12 4 9 9 -3 4 -7 8 -9 8 -2 0 -6
-4 -9 -8z"/>
<path d="M12055 10631 c-3 -5 -2 -12 3 -15 5 -3 9 1 9 9 0 17 -3 19 -12 6z"/>
<path d="M11948 10619 c6 -9 9 -18 6 -22 -3 -3 1 -4 10 -3 8 1 18 5 21 9 3 4
2 5 -2 2 -3 -3 -16 3 -27 12 -15 14 -18 14 -8 2z"/>
<path d="M11826 10578 c3 -5 10 -6 15 -3 13 9 11 12 -6 12 -8 0 -12 -4 -9 -9z"/>
<path d="M8738 10575 c-1 -2 -32 -6 -68 -9 -36 -3 -101 -13 -145 -21 -682
-130 -1212 -549 -1410 -1114 -54 -154 -75 -299 -70 -481 3 -133 5 -151 26
-259 32 -163 130 -378 247 -540 68 -95 226 -263 298 -317 21 -16 41 -32 44
-35 12 -15 193 -130 270 -171 147 -79 398 -169 540 -193 14 -3 45 -9 70 -14
94 -19 191 -26 380 -26 215 0 295 7 450 40 569 118 1042 458 1273 915 55 109
106 241 123 320 48 228 41 479 -19 695 -95 336 -343 661 -672 878 -235 155
-564 280 -820 312 -22 3 -56 7 -75 11 -38 6 -436 15 -442 9z"/>
<path d="M11829 10543 c-13 -16 -12 -17 4 -4 9 7 17 15 17 17 0 8 -8 3 -21
-13z"/>
<path d="M12079 10433 c-13 -16 -12 -17 4 -4 9 7 17 15 17 17 0 8 -8 3 -21
-13z"/>
<path d="M12119 10433 c-12 -16 -12 -17 2 -6 9 7 20 9 24 5 5 -4 5 -1 1 6 -9
16 -11 15 -27 -5z"/>
<path d="M6495 10401 c-3 -5 -2 -12 3 -15 5 -3 9 1 9 9 0 17 -3 19 -12 6z"/>
<path d="M12286 10358 c3 -5 10 -6 15 -3 13 9 11 12 -6 12 -8 0 -12 -4 -9 -9z"/>
<path d="M6333 10345 c0 -8 4 -12 9 -9 5 3 6 10 3 15 -9 13 -12 11 -12 -6z"/>
<path d="M6253 10325 c0 -8 4 -12 9 -9 5 3 6 10 3 15 -9 13 -12 11 -12 -6z"/>
<path d="M6275 10300 c3 -5 8 -10 11 -10 2 0 4 5 4 10 0 6 -5 10 -11 10 -5 0
-7 -4 -4 -10z"/>
<path d="M12373 10285 c0 -8 4 -12 9 -9 5 3 6 10 3 15 -9 13 -12 11 -12 -6z"/>
<path d="M13605 10260 c-9 -18 -15 -33 -13 -34 2 0 14 -10 27 -21 14 -11 21
-15 18 -8 -4 6 -3 14 2 18 6 3 7 15 2 28 -5 12 -9 26 -9 30 -1 22 -12 16 -27
-13z"/>
<path d="M12875 10261 c-3 -5 -2 -12 3 -15 5 -3 9 1 9 9 0 17 -3 19 -12 6z"/>
<path d="M12596 10142 c-3 -5 1 -9 9 -9 8 0 12 4 9 9 -3 4 -7 8 -9 8 -2 0 -6
-4 -9 -8z"/>
<path d="M6115 10121 c-3 -5 -2 -12 3 -15 5 -3 9 1 9 9 0 17 -3 19 -12 6z"/>
<path d="M6116 10078 c3 -5 10 -6 15 -3 13 9 11 12 -6 12 -8 0 -12 -4 -9 -9z"/>
<path d="M6073 10065 c0 -8 4 -12 9 -9 5 3 6 10 3 15 -9 13 -12 11 -12 -6z"/>
<path d="M6020 10020 c-9 -6 -10 -10 -3 -10 6 0 15 5 18 10 8 12 4 12 -15 0z"/>
<path d="M6050 10020 c0 -5 5 -10 11 -10 5 0 7 5 4 10 -3 6 -8 10 -11 10 -2 0
-4 -4 -4 -10z"/>
<path d="M5995 9980 c3 -5 8 -10 11 -10 2 0 4 5 4 10 0 6 -5 10 -11 10 -5 0
-7 -4 -4 -10z"/>
<path d="M13753 9887 c0 -8 6 -14 14 -14 9 0 10 4 2 14 -6 7 -12 13 -14 13 -1
0 -2 -6 -2 -13z"/>
<path d="M5753 9825 c0 -8 4 -12 9 -9 5 3 6 10 3 15 -9 13 -12 11 -12 -6z"/>
<path d="M13610 9819 c0 -5 5 -7 10 -4 6 3 10 8 10 11 0 2 -4 4 -10 4 -5 0
-10 -5 -10 -11z"/>
<path d="M13256 9807 c3 -10 9 -15 12 -12 3 3 0 11 -7 18 -10 9 -11 8 -5 -6z"/>
<path d="M13199 9793 c-13 -16 -12 -17 4 -4 9 7 17 15 17 17 0 8 -8 3 -21 -13z"/>
<path d="M13197 9764 c-3 -3 -3 -13 0 -22 4 -9 2 -13 -5 -8 -6 3 -13 -3 -17
-14 -4 -11 -10 -18 -14 -16 -4 3 -7 -5 -6 -17 2 -28 27 -33 59 -12 22 15 25
15 34 0 8 -15 10 -16 15 -1 3 8 2 18 -3 21 -6 4 -10 15 -10 25 0 13 -6 18 -20
15 -18 -3 -25 5 -21 28 1 9 -4 9 -12 1z"/>
<path d="M5635 9751 c-3 -5 -2 -12 3 -15 5 -3 9 1 9 9 0 17 -3 19 -12 6z"/>
<path d="M13470 9719 c0 -5 5 -7 10 -4 6 3 10 8 10 11 0 2 -4 4 -10 4 -5 0
-10 -5 -10 -11z"/>
<path d="M13413 9705 c0 -8 4 -12 9 -9 5 3 6 10 3 15 -9 13 -12 11 -12 -6z"/>
<path d="M5670 9679 c0 -5 5 -7 10 -4 6 3 10 8 10 11 0 2 -4 4 -10 4 -5 0 -10
-5 -10 -11z"/>
<path d="M13714 9600 c0 -13 4 -16 10 -10 7 7 7 13 0 20 -6 6 -10 3 -10 -10z"/>
<path d="M13625 9602 c3 -3 19 -7 36 -8 17 -2 28 0 25 3 -3 3 -19 7 -36 8 -17
1 -28 0 -25 -3z"/>
<path d="M1296 9538 c-11 -25 0 -48 23 -48 11 0 36 -16 55 -35 l35 -34 -11 32
c-18 51 -39 80 -51 68 -18 -18 -35 -12 -40 12 -3 19 -4 20 -11 5z"/>
<path d="M14150 9540 c-9 -6 -10 -10 -3 -10 6 0 15 5 18 10 8 12 4 12 -15 0z"/>
<path d="M1947 9524 c-14 -14 -7 -25 13 -22 12 2 21 8 21 13 0 12 -24 18 -34
9z"/>
<path d="M14111 9495 c-14 -14 -22 -28 -18 -31 7 -8 47 33 47 48 0 11 -2 10
-29 -17z"/>
<path d="M2048 9496 c-29 -21 -49 -95 -53 -189 -3 -87 -3 -88 16 -69 10 11 27
23 38 27 11 3 19 14 18 25 -1 11 -3 17 -6 14 -2 -2 -13 8 -23 23 -18 29 -24
62 -10 64 4 0 15 2 25 4 22 4 47 -20 47 -46 0 -11 5 -17 10 -14 6 4 8 10 5 15
-8 12 33 33 47 24 7 -4 8 -3 4 5 -4 6 0 14 11 18 21 7 73 62 73 76 0 5 -16 7
-36 4 -31 -5 -34 -4 -23 9 6 8 9 17 5 21 -3 3 -6 2 -6 -4 0 -11 -44 -33 -67
-33 -9 0 -26 9 -37 19 -18 16 -24 18 -38 7z"/>
<path d="M1650 9483 c0 -6 -10 -13 -22 -15 -13 -2 -24 -11 -26 -22 -4 -17 0
-18 35 -11 48 9 48 9 29 37 -9 12 -16 17 -16 11z"/>
<path d="M1260 9393 l0 -47 17 24 c20 28 23 52 8 62 -20 15 -25 7 -25 -39z"/>
<path d="M13396 9413 c-6 -14 -5 -15 5 -6 7 7 10 15 7 18 -3 3 -9 -2 -12 -12z"/>
<path d="M2349 9413 c0 -5 -2 -19 -5 -32 -4 -24 -4 -24 16 -6 15 14 17 21 9
32 -13 15 -19 16 -20 6z"/>
<path d="M1796 9360 c-16 -17 -25 -30 -20 -29 5 1 16 1 24 0 12 -1 12 -4 -3
-15 -10 -8 -17 -22 -15 -32 2 -10 -3 -19 -9 -20 -24 -3 -24 -4 -9 -20 13 -13
26 -14 69 -6 49 8 50 9 23 17 -18 5 -36 4 -48 -4 -11 -7 -18 -7 -18 -1 0 5 5
10 11 10 5 0 8 4 4 9 -3 6 0 13 8 18 22 14 57 65 57 84 0 30 -41 23 -74 -11z"/>
<path d="M717 9366 c-4 -9 0 -13 11 -11 9 2 23 4 30 4 20 1 3 21 -18 21 -10 0
-20 -6 -23 -14z"/>
<path d="M1379 9369 c-1 -2 -3 -16 -5 -31 -2 -25 -1 -26 17 -15 10 6 19 15 19
18 0 7 -29 33 -31 28z"/>
<path d="M5247 9359 c7 -7 15 -10 18 -7 3 3 -2 9 -12 12 -14 6 -15 5 -6 -5z"/>
<path d="M1100 9345 c-7 -8 -9 -15 -6 -15 4 0 14 7 22 15 9 8 11 15 6 15 -5 0
-15 -7 -22 -15z"/>
<path d="M2130 9340 c0 -5 5 -10 11 -10 5 0 7 5 4 10 -3 6 -8 10 -11 10 -2 0
-4 -4 -4 -10z"/>
<path d="M4392 9323 c-6 -2 -10 -9 -7 -13 7 -11 35 -2 35 11 0 10 -8 10 -28 2z"/>
<path d="M2693 9309 c-37 -11 -44 -34 -13 -42 30 -8 15 -33 -31 -51 -22 -9
-38 -20 -34 -25 6 -10 -24 -18 -95 -26 -57 -6 -95 12 -96 45 -1 37 5 42 29 25
37 -26 35 -17 -5 28 -22 23 -47 42 -56 42 -18 0 -46 -46 -33 -55 4 -3 10 -12
14 -22 5 -15 1 -18 -55 -33 -5 -2 -10 -4 -13 -5 -3 -1 -8 -3 -12 -4 -5 -1 -13
-4 -18 -8 -6 -3 -33 -5 -61 -4 -52 1 -58 -6 -33 -40 5 -6 6 -14 2 -17 -3 -4
-1 -7 5 -7 6 0 14 5 17 10 8 13 55 13 55 -1 0 -5 5 -7 10 -4 6 3 10 2 10 -4 0
-7 8 -7 24 -2 20 8 27 4 55 -35 17 -25 28 -50 25 -56 -5 -7 -2 -8 6 -3 10 6
12 2 7 -16 l-6 -24 18 24 c12 16 21 20 25 12 4 -6 5 -15 2 -20 -4 -5 3 -7 15
-4 16 4 17 8 7 14 -11 7 -11 9 1 9 9 0 12 9 9 30 -3 20 0 30 9 30 7 0 13 5 13
10 0 7 29 10 79 8 60 -2 77 -6 73 -16 -2 -7 -10 -11 -18 -8 -7 3 -18 -3 -26
-12 -12 -15 -11 -16 5 -3 16 13 18 12 13 -13 -3 -15 -1 -24 5 -21 5 4 7 11 4
16 -5 8 9 13 18 7 2 -2 10 2 18 9 12 10 14 5 14 -33 0 -24 -4 -44 -9 -44 -5 0
-6 -3 -2 -7 3 -4 -4 -13 -16 -20 -19 -10 -20 -12 -5 -13 11 0 15 -4 11 -12 -4
-6 -3 -8 4 -4 6 3 15 1 21 -6 43 -53 63 -69 92 -74 19 -4 42 -11 53 -16 13 -7
16 -7 12 1 -9 14 -2 14 62 -3 28 -8 52 -11 52 -8 0 3 6 -3 14 -13 8 -11 12
-23 10 -27 -3 -4 2 -5 10 -2 9 3 24 3 33 -2 10 -4 25 -8 33 -10 44 -5 102 -26
91 -33 -19 -12 0 -46 66 -117 14 -16 28 -22 39 -17 13 5 15 3 9 -7 -5 -8 -4
-11 3 -6 6 4 9 13 5 21 -6 16 8 19 45 9 12 -4 22 -14 22 -23 0 -13 2 -13 9 -2
7 10 12 8 24 -9 17 -24 12 -54 -7 -43 -6 4 -6 0 2 -9 10 -13 10 -17 0 -22 -7
-3 -4 -4 8 -1 15 4 30 -6 57 -36 20 -22 37 -37 37 -34 0 4 6 2 13 -4 8 -6 17
-7 21 -3 5 4 7 0 6 -8 -5 -34 2 -52 29 -79 16 -16 28 -31 25 -33 -2 -3 3 -5
11 -6 8 -1 22 -3 30 -4 8 -1 15 -5 15 -9 0 -4 16 -10 35 -13 19 -4 39 -14 44
-24 6 -9 11 -13 11 -9 0 4 9 3 21 -4 17 -9 24 -7 40 10 19 20 21 20 62 4 23
-9 45 -21 49 -27 5 -7 8 -7 9 -1 0 6 4 1 9 -10 7 -17 9 -17 9 -3 1 16 4 16 41
3 23 -8 39 -11 36 -6 -3 4 2 18 11 30 12 18 17 20 24 10 7 -12 9 -11 9 0 0 11
4 10 16 -5 8 -10 12 -12 8 -4 -4 8 4 4 19 -10 15 -14 27 -30 27 -36 0 -7 7
-14 15 -18 8 -3 15 -10 15 -16 0 -6 -5 -8 -12 -4 -7 4 -8 3 -4 -5 4 -6 11 -9
15 -6 12 7 54 -42 47 -54 -4 -6 -2 -20 4 -31 12 -22 64 -53 74 -43 3 4 6 1 6
-5 0 -6 9 -9 20 -7 11 2 22 -1 26 -7 4 -6 9 -6 13 -1 8 12 103 -15 96 -28 -3
-5 1 -6 9 -3 19 7 21 -7 4 -26 -11 -12 -10 -12 4 -1 15 11 19 11 24 -3 3 -9
14 -16 24 -16 10 0 22 -9 25 -21 7 -22 49 -44 91 -48 8 0 12 -6 9 -11 -4 -6
-10 -8 -14 -6 -4 3 -13 0 -21 -6 -12 -8 -12 -9 3 -4 9 3 17 1 17 -4 0 -6 -5
-10 -11 -10 -15 0 -2 -18 23 -31 11 -6 18 -7 14 -1 -3 5 1 15 9 22 8 7 12 16
9 21 -3 5 0 9 6 9 6 0 8 5 5 10 -5 9 24 9 53 1 1 -1 -2 -9 -7 -19 -7 -13 -6
-19 2 -19 39 -1 70 -24 61 -46 -6 -18 93 -32 181 -26 14 1 25 5 25 10 0 14 29
-2 35 -20 3 -9 17 -18 32 -19 34 -3 37 -6 21 -23 -19 -21 -21 -46 -3 -53 9 -3
14 -2 11 3 -7 11 22 23 36 14 6 -3 8 -1 5 4 -7 11 42 25 55 16 12 -6 10 -53
-2 -53 -6 0 -9 -4 -8 -9 2 -4 -7 -17 -20 -27 l-23 -19 57 3 c45 3 55 1 48 -10
-6 -11 -5 -11 9 1 9 7 17 9 17 4 0 -5 9 -9 19 -9 11 0 17 4 15 8 -3 4 10 8 28
8 24 0 29 -3 18 -9 -8 -6 -18 -7 -22 -5 -4 3 -5 -2 -2 -10 4 -11 20 -16 50
-16 24 0 44 -5 44 -11 0 -5 5 -7 10 -4 6 3 10 -4 10 -18 0 -14 14 -38 34 -58
19 -18 32 -37 29 -43 -3 -5 -2 -6 4 -3 5 3 33 -9 62 -28 29 -19 56 -35 61 -35
5 0 10 -3 12 -7 2 -5 20 -17 41 -27 21 -11 36 -24 34 -30 -3 -6 6 -12 20 -12
13 -1 32 -11 42 -23 10 -12 23 -21 30 -21 6 0 11 -4 11 -9 0 -4 14 -22 30 -39
25 -27 30 -29 30 -13 0 34 29 33 47 -2 9 -18 16 -38 14 -46 -2 -10 2 -10 14 3
9 9 20 16 25 16 10 0 1 -38 -11 -46 -14 -8 -11 -24 5 -24 19 0 67 -40 61 -51
-4 -5 1 -6 9 -3 9 4 18 0 21 -9 6 -14 62 -16 85 -2 5 3 10 2 10 -4 0 -5 -9
-13 -20 -16 -11 -3 -20 -11 -20 -16 0 -5 9 -9 20 -9 11 0 20 -6 20 -14 0 -7
-9 -16 -20 -19 -39 -10 -20 -24 24 -17 45 7 117 55 137 91 5 11 14 17 19 14 6
-3 7 0 4 8 -3 8 -1 18 5 22 7 3 11 -2 11 -14 0 -24 49 -37 80 -21 12 6 24 9
27 6 8 -7 -6 -56 -15 -53 -4 1 -9 -2 -11 -8 -5 -12 97 -75 121 -75 12 0 16 -6
12 -17 -5 -16 -5 -17 5 -1 11 17 47 18 44 1 -1 -5 8 -10 19 -10 20 -2 20 -1 2
12 -11 7 -16 17 -12 21 4 4 14 1 22 -5 8 -7 19 -10 23 -8 13 8 75 -22 68 -32
-3 -6 3 -8 15 -6 11 2 22 0 25 -6 4 -5 15 -9 26 -9 11 0 17 -5 14 -10 -4 -6
-12 -7 -18 -4 -7 4 -8 3 -4 -1 9 -11 39 -16 33 -7 -2 4 0 18 5 31 6 15 14 21
25 17 8 -3 12 -2 9 4 -3 6 3 10 14 10 12 0 21 -5 21 -11 0 -5 -5 -7 -12 -3 -7
4 -8 3 -4 -5 4 -6 15 -10 24 -9 9 2 16 -2 15 -9 -2 -7 4 -10 12 -7 9 4 15 0
15 -7 0 -8 13 -23 29 -34 16 -10 28 -22 26 -25 -2 -4 11 -6 29 -5 37 2 82 -28
70 -46 -4 -7 -3 -9 4 -5 5 3 13 0 15 -6 3 -8 6 -6 6 5 1 9 5 17 11 17 5 0 6 7
3 17 -4 11 -3 14 5 9 7 -4 10 -2 6 7 -6 17 19 39 37 32 8 -3 30 -30 49 -59 19
-30 38 -53 41 -50 4 2 10 0 14 -6 3 -5 18 -10 33 -10 20 0 23 3 14 12 -14 14
-16 28 -3 28 12 0 34 -57 26 -69 -3 -6 -1 -11 6 -11 6 0 9 -8 6 -20 -3 -11 -2
-20 2 -20 6 0 12 -31 14 -77 1 -12 5 -19 9 -17 4 3 8 0 8 -5 0 -6 0 -14 0 -18
0 -5 -4 -9 -10 -9 -24 -3 -24 -6 -1 -24 32 -27 37 -26 55 21 9 22 21 37 26 34
6 -4 9 -1 8 5 -2 7 5 14 15 15 13 3 17 -1 13 -12 -3 -8 -9 -25 -12 -38 -4 -16
-11 -22 -22 -18 -14 4 -14 3 -3 -5 8 -6 10 -15 6 -22 -5 -9 -4 -11 4 -6 6 4
14 0 17 -8 8 -20 40 -20 115 -1 60 16 85 13 73 -7 -4 -7 -2 -8 4 -4 6 4 9 13
6 21 -5 11 0 12 24 5 17 -4 33 -6 36 -2 3 3 6 0 6 -6 0 -7 10 -12 23 -12 12 0
18 4 12 8 -17 12 -15 29 5 47 17 15 24 16 50 5 16 -7 28 -16 25 -20 -3 -4 5
-10 16 -13 12 -3 18 -10 14 -17 -3 -6 -3 -10 2 -9 4 2 20 -4 35 -11 23 -11 26
-16 16 -29 -10 -13 -10 -14 2 -3 8 6 23 12 35 12 12 0 26 5 32 11 7 7 19 8 30
4 10 -5 22 -7 27 -6 4 1 15 -4 23 -10 8 -7 13 -8 12 -3 -4 21 2 26 18 13 9 -8
14 -9 10 -3 -4 7 7 14 31 18 20 3 49 12 65 20 21 12 27 12 27 2 0 -7 9 -25 20
-39 12 -15 20 -29 20 -32 -1 -4 2 -10 6 -13 4 -4 4 -1 0 6 -11 19 15 14 30 -5
13 -17 14 -17 8 0 -7 20 21 25 29 5 3 -7 6 -4 6 7 1 17 3 17 11 5 6 -9 10 -10
10 -3 0 6 9 10 20 8 11 -2 20 0 20 6 0 5 9 9 21 9 11 0 18 -4 15 -9 -3 -5 2
-15 12 -22 15 -12 16 -12 5 1 -18 23 -1 42 29 35 18 -5 28 -15 32 -37 3 -16 3
-34 0 -39 -3 -5 0 -9 5 -9 6 0 11 5 11 11 0 8 6 7 17 -2 11 -10 14 -10 9 -1
-11 18 5 14 20 -5 12 -16 13 -16 8 -1 -4 13 -1 15 15 11 12 -3 18 -10 14 -17
-3 -6 0 -6 8 2 16 14 63 17 54 2 -4 -6 -10 -8 -15 -5 -5 3 -11 1 -14 -4 -4 -5
7 -7 24 -5 25 4 29 2 24 -13 -6 -16 -5 -16 8 1 12 15 23 18 54 13 25 -4 34 -3
25 3 -12 7 -9 10 12 15 15 4 25 11 22 15 -3 5 4 11 15 15 11 4 17 11 14 17 -5
7 -2 8 5 4 7 -5 10 -14 7 -21 -3 -8 0 -15 5 -17 6 -2 11 -11 13 -20 1 -10 5
-20 9 -24 3 -4 4 3 2 15 -3 19 -1 21 18 14 33 -11 124 -8 141 6 11 9 15 9 19
-1 4 -9 6 -8 6 3 1 13 51 59 64 59 3 0 7 -14 11 -31 5 -27 8 -30 21 -19 11 9
15 9 15 1 0 -7 5 -9 10 -6 6 3 16 3 23 -2 6 -4 14 -8 17 -8 3 -1 25 -5 50 -10
25 -5 48 -9 52 -9 3 -1 9 -4 13 -8 4 -3 18 -4 31 -2 15 3 24 0 24 -8 0 -9 3
-10 8 -2 4 6 21 13 37 16 17 3 39 9 49 13 11 5 17 5 14 -1 -4 -5 9 -9 27 -9
18 0 31 3 28 8 -2 4 21 7 52 7 31 0 54 -4 51 -8 -3 -5 8 -6 25 -4 16 2 36 -1
44 -8 12 -10 15 -10 15 1 0 10 3 10 11 2 6 -6 18 -9 25 -6 16 6 19 -8 4 -23
-7 -7 -6 -11 4 -11 8 0 15 3 14 6 -2 24 6 30 41 28 22 -1 37 1 35 5 -3 5 -1 8
4 8 21 0 55 42 57 71 2 21 16 43 44 70 37 36 53 57 34 46 -19 -11 -47 11 -48
36 -1 15 1 27 5 27 8 0 7 41 -2 55 -4 7 6 9 28 7 20 -3 38 -11 41 -18 3 -8 13
-14 22 -14 13 -1 12 -4 -7 -19 -21 -19 -22 -51 0 -51 5 0 7 -4 4 -8 -3 -5 11
-8 30 -7 19 1 34 -3 34 -9 0 -6 4 -5 9 3 11 18 68 16 99 -2 6 -5 16 -6 21 -3
5 4 12 0 14 -6 4 -10 6 -10 6 0 1 6 11 12 24 12 13 0 27 3 31 7 4 4 17 8 29 9
12 2 51 10 86 19 36 8 71 13 78 10 9 -3 11 0 7 7 -5 7 1 9 20 6 14 -3 26 -2
26 3 0 4 8 8 18 8 26 1 56 6 67 13 6 3 18 4 28 3 9 -2 17 1 17 7 0 6 9 8 20 5
11 -3 20 -1 20 5 0 6 11 8 25 6 13 -3 22 -1 19 3 -5 8 16 13 43 10 6 -1 14 3
18 9 4 7 12 7 25 0 15 -8 18 -7 14 3 -3 9 3 17 16 20 18 5 20 3 8 -11 -7 -9 0
-6 16 8 15 14 29 24 32 23 15 -6 42 12 41 27 -1 10 -4 17 -8 14 -10 -6 -30 22
-21 30 4 4 1 6 -7 4 -7 -1 -15 2 -18 8 -2 6 6 14 19 16 13 3 30 9 39 12 10 4
23 0 33 -9 17 -17 23 -50 7 -41 -5 3 -12 -1 -15 -10 -8 -22 -6 -23 25 -10 28
12 29 13 29 49 0 18 2 19 10 7 6 -9 10 -10 10 -3 0 6 -4 14 -10 18 -13 8 -1
35 17 35 8 0 21 -6 29 -14 12 -13 12 -15 -4 -19 -16 -4 -16 -5 0 -6 11 -1 15
-6 12 -16 -4 -8 -10 -13 -14 -10 -5 3 -8 -4 -7 -15 2 -36 39 -19 42 20 6 66
37 119 54 91 6 -10 10 -9 15 4 3 9 11 13 16 10 8 -5 7 -12 -2 -23 -10 -14 -10
-15 1 -5 10 8 20 9 37 1 17 -8 27 -8 37 0 10 9 17 8 26 -1 10 -9 11 -8 5 7 -5
13 -4 17 3 13 6 -4 13 -2 15 3 2 6 12 12 23 14 22 3 34 26 13 26 -7 0 -24 9
-38 20 l-25 19 21 20 c12 11 25 17 29 13 4 -4 3 3 -3 14 -11 20 -9 22 16 21
31 -1 111 20 129 35 7 5 18 6 24 2 8 -4 9 -3 5 4 -5 8 0 12 13 12 10 0 21 4
23 8 7 17 131 94 154 96 15 1 25 9 29 25 8 31 26 49 45 44 13 -4 13 -3 0 6
-13 10 -11 15 15 36 17 14 34 25 38 25 5 0 14 6 22 13 10 11 9 17 -10 35 -25
24 -27 53 -5 60 9 3 11 -1 6 -13 -5 -14 -4 -15 7 -7 10 8 16 6 25 -9 7 -10 19
-19 28 -19 8 0 12 -5 8 -11 -4 -7 0 -9 14 -5 27 9 64 17 80 18 6 1 12 6 12 11
0 5 20 7 45 5 25 -2 45 -1 46 2 5 33 11 47 33 66 37 35 43 64 16 86 -25 20
-19 24 11 8 10 -6 19 -17 19 -25 0 -8 6 -14 13 -13 7 2 11 -6 10 -17 -1 -20
-1 -20 13 -1 8 11 14 16 14 10 1 -5 8 4 16 19 8 16 20 25 26 21 6 -4 8 -3 5 3
-6 9 36 47 78 69 15 8 23 6 32 -5 10 -14 11 -13 6 7 -5 20 0 24 23 21 4 0 10
3 13 8 13 19 64 44 77 39 9 -3 12 -1 9 4 -3 6 2 13 12 17 10 3 29 17 42 30 13
12 28 20 35 16 6 -3 8 -3 4 2 -4 4 -3 14 3 21 7 9 3 16 -18 26 -15 7 -29 21
-31 31 -4 18 8 18 117 2 31 -4 33 -3 27 20 -3 14 -9 36 -12 50 -4 16 -2 25 5
25 7 0 9 -5 5 -12 -4 -7 -3 -8 4 -4 18 11 14 36 -4 36 -13 0 -14 3 -4 15 7 8
16 12 21 9 5 -3 9 0 9 6 0 7 7 9 16 6 8 -3 13 -2 10 3 -7 11 22 23 36 14 6 -3
8 -1 4 5 -7 11 80 79 96 74 5 -1 7 1 4 6 -9 14 61 75 78 69 8 -3 18 -2 21 4 4
5 3 9 -2 8 -27 -5 -31 3 -13 21 23 23 35 26 24 8 -4 -8 -3 -9 2 -5 5 5 9 16 9
25 0 9 6 16 13 14 6 -1 12 4 12 12 0 8 26 42 59 75 32 34 56 61 53 61 -2 0 7
9 22 21 14 11 31 17 38 13 10 -5 10 -4 1 6 -9 10 -7 17 12 31 13 11 30 19 39
19 9 0 15 4 14 9 -2 5 0 9 5 10 4 1 16 10 27 21 12 12 25 18 30 15 6 -4 10 -1
10 5 0 7 7 10 15 6 8 -3 14 -1 12 5 -1 5 22 20 52 33 38 16 48 25 37 29 -11 5
-15 15 -12 32 3 14 2 23 -2 21 -11 -6 -58 31 -50 39 3 4 24 11 45 16 21 6 43
11 48 12 6 2 20 8 31 15 12 6 25 8 29 4 4 -4 3 3 -4 15 -15 29 -14 49 3 65 7
8 21 28 29 45 15 27 15 32 2 43 -12 10 -15 9 -15 -4 0 -9 -4 -16 -10 -16 -5 0
-10 4 -10 9 0 17 -84 50 -162 65 -43 8 -98 24 -123 35 -45 20 -45 20 -45 0 0
-23 -40 -43 -106 -54 -58 -9 -87 -38 -82 -81 5 -40 -3 -43 -25 -11 -16 22 -16
22 -11 -8 4 -23 0 -35 -19 -53 -13 -13 -28 -22 -33 -20 -5 2 -32 -19 -59 -45
-28 -27 -102 -77 -165 -113 -63 -36 -119 -69 -124 -74 -4 -4 4 -15 19 -23 32
-16 22 -28 -25 -29 -29 -1 -29 -2 -14 -19 9 -10 22 -16 28 -12 17 10 5 -1 -54
-48 -89 -71 -102 -77 -153 -73 -49 4 -61 -8 -27 -26 11 -6 20 -17 20 -25 0
-18 -5 -18 -33 -4 -18 9 -20 9 -9 -2 6 -7 12 -21 12 -32 0 -15 -6 -18 -32 -14
-58 9 -69 16 -61 45 l6 26 -29 -19 c-37 -24 -48 -35 -62 -62 -17 -30 -15 -35
8 -23 11 6 20 8 20 5 0 -10 -85 -91 -178 -169 -94 -79 -172 -166 -172 -191 0
-7 6 -15 12 -17 9 -3 8 -12 -5 -31 -19 -30 -42 -44 -82 -51 -38 -7 -93 -46
-99 -72 -3 -11 -14 -30 -24 -42 -16 -19 -21 -20 -31 -8 -6 8 -27 17 -46 20
-18 4 -35 12 -38 19 -2 7 -11 -2 -20 -20 -13 -24 -16 -48 -12 -97 5 -61 -3
-83 -20 -56 -11 18 -24 11 -20 -11 6 -28 -26 -102 -32 -76 -3 9 -18 24 -34 32
-16 9 -32 27 -35 40 -12 47 -94 20 -140 -46 -37 -54 -57 -64 -94 -45 -30 14
-30 14 -24 -12 4 -15 8 -28 9 -30 9 -10 63 -7 81 5 23 15 49 9 58 -12 6 -17
-4 -56 -14 -50 -4 3 -7 -3 -6 -12 0 -9 -10 -22 -23 -29 -20 -10 -31 -10 -60 3
-97 42 -138 54 -173 51 -21 -2 -39 0 -41 5 -1 4 -18 -6 -36 -23 -19 -16 -46
-30 -59 -30 -17 0 -22 -4 -19 -14 3 -8 -3 -22 -13 -31 -11 -10 -18 -27 -15
-39 2 -11 4 -25 4 -30 1 -5 11 -1 24 10 49 44 56 47 50 25 -3 -12 -9 -18 -14
-15 -5 3 -6 -2 -3 -10 8 -21 -35 -94 -60 -103 -48 -15 -57 -12 -52 21 3 17 10
32 15 34 6 2 11 8 11 12 0 11 -40 4 -54 -10 -20 -20 -46 -11 -46 15 0 19 9 31
31 43 48 26 96 69 96 87 0 24 -20 18 -46 -15 -18 -23 -27 -28 -36 -20 -10 9
-14 6 -17 -11 -2 -18 -13 -26 -44 -34 -48 -12 -74 -31 -74 -54 -1 -10 -7 -4
-17 14 -15 28 -16 28 -24 8 -13 -35 -29 -37 -29 -4 0 32 -6 37 -29 22 -7 -5
-28 -5 -46 -1 l-34 8 17 -37 c9 -20 22 -43 30 -52 11 -15 10 -19 -8 -32 -12
-8 -29 -14 -38 -12 -9 2 -22 4 -28 4 -5 1 -20 10 -31 21 -39 36 -88 60 -121
60 -20 0 -31 -4 -27 -10 4 -6 10 -8 14 -5 11 6 43 -30 34 -38 -8 -8 -70 2 -96
15 -20 10 -57 2 -57 -13 0 -5 11 -19 25 -31 31 -27 32 -40 1 -32 -21 5 -25 0
-42 -46 l-19 -52 -12 31 c-23 55 -73 37 -77 -29 -2 -23 -9 -46 -16 -50 -19
-12 -41 0 -36 19 3 9 8 29 12 45 l7 28 -27 -17 c-14 -10 -27 -13 -27 -9 -1 5
-2 14 -4 19 -1 6 -3 16 -3 23 -2 9 -9 6 -24 -8 -25 -23 -22 -22 -68 -24 -33
-2 -35 -4 -36 -37 -1 -45 -20 -79 -44 -79 -10 0 -22 9 -25 20 -3 11 -15 20
-26 20 -22 0 -25 18 -6 44 13 17 14 17 30 1 12 -12 17 -13 17 -3 0 7 3 23 6
34 4 17 0 23 -21 28 -34 9 -96 -11 -89 -27 5 -13 -72 -97 -89 -97 -5 0 -7 11
-5 25 6 30 -2 32 -22 5 -26 -35 -40 -25 -34 26 2 26 7 51 10 56 4 5 -12 -2
-34 -16 l-41 -26 -35 41 -34 40 -34 -17 c-18 -9 -46 -26 -62 -37 -16 -12 -47
-22 -68 -23 -21 -1 -45 -7 -54 -14 -12 -11 -24 -10 -67 3 -76 24 -121 27 -152
11 -33 -17 -37 -15 -60 35 -15 33 -21 39 -32 29 -8 -6 -11 -18 -8 -26 3 -9 8
-30 11 -47 6 -38 -9 -53 -57 -57 l-34 -3 -3 49 c-1 28 -4 51 -6 53 -1 2 -16
-8 -32 -23 -48 -42 -81 -55 -119 -48 -48 9 -56 36 -9 31 l35 -4 -27 28 c-31
33 -25 47 31 74 34 16 47 46 25 60 -5 3 -10 0 -10 -8 0 -7 -11 -24 -24 -36
-20 -19 -37 -23 -99 -25 -79 -3 -127 -22 -127 -52 0 -9 -6 -14 -12 -11 -7 2
-12 14 -11 26 2 16 -3 21 -22 21 -14 0 -25 -4 -25 -9 0 -15 -77 -91 -92 -91
-24 0 -58 30 -58 52 0 15 -4 18 -17 13 -10 -4 -31 -10 -47 -13 -23 -4 -28 -2
-23 11 5 12 -4 16 -45 19 -42 2 -57 -2 -92 -24 -47 -32 -65 -36 -45 -11 12 15
12 16 -4 10 -11 -4 -30 -10 -43 -13 -23 -6 -24 -5 -13 19 12 26 58 45 79 32
11 -7 13 18 3 53 -5 20 -10 23 -32 18 -14 -4 -36 -8 -48 -11 -14 -3 -32 4 -50
20 l-28 24 31 1 c17 0 33 3 37 6 12 13 -17 64 -59 102 -24 23 -44 40 -44 39 0
-1 7 -24 15 -51 18 -58 19 -108 4 -123 -7 -7 -3 -9 15 -6 30 6 36 -16 10 -38
-14 -12 -19 -10 -38 12 -24 30 -56 41 -79 27 -13 -6 -15 -4 -12 11 4 23 -15
41 -45 44 -21 1 -22 14 -4 61 10 26 -11 19 -55 -19 -61 -50 -78 -39 -78 53 -1
78 -22 89 -30 15 -7 -64 -22 -71 -82 -39 -36 19 -111 24 -168 12 -41 -9 -53
17 -21 45 21 18 20 18 -21 -1 -37 -19 -43 -19 -38 -5 9 22 -11 9 -41 -27 -13
-15 -31 -28 -41 -28 -9 0 -21 -4 -27 -10 -13 -13 -26 -1 -54 54 -25 48 -69 80
-97 69 -20 -8 -16 8 10 35 l22 25 -60 -7 c-33 -3 -82 -12 -109 -21 -67 -20
-72 -20 -86 15 l-12 30 -17 -31 c-23 -43 -98 -81 -160 -83 -31 -1 -47 -5 -44
-12 2 -6 11 -11 20 -10 12 1 18 -9 20 -35 l4 -36 -52 4 c-29 2 -55 5 -57 7 -2
2 12 19 30 37 18 18 26 27 16 20 -13 -9 -18 -9 -24 0 -4 7 -2 15 4 17 7 2 12
10 12 17 0 8 14 23 30 35 22 15 30 18 30 8 0 -8 -4 -18 -10 -24 -6 -6 -2 -10
14 -12 26 -2 120 83 110 99 -3 5 -10 7 -15 4 -5 -4 -9 -2 -9 4 0 5 6 12 13 15
6 3 2 3 -10 0 -25 -6 -28 2 -13 41 9 22 8 26 -4 22 -8 -3 -21 4 -29 16 -8 12
-26 35 -40 51 l-25 28 -92 -32 c-50 -18 -97 -33 -103 -34 -7 -1 -18 -5 -25
-10 -17 -10 -191 -16 -197 -7 -2 5 7 14 20 21 14 7 25 19 25 27 0 7 3 13 8 13
4 0 16 21 26 47 17 39 20 43 27 26 9 -26 20 -29 102 -31 54 -2 67 1 67 13 0 8
1 18 2 23 1 4 -28 6 -65 6 l-66 -2 5 27 c6 34 -22 74 -36 51 -21 -34 -27 -39
-51 -43 -13 -3 -43 1 -64 9 -22 7 -48 14 -57 14 -23 0 -23 14 -1 35 12 12 26
15 50 12 24 -4 33 -2 30 6 -6 20 -33 19 -79 -3 -65 -30 -89 -33 -95 -11 -3 10
-16 24 -29 30 -23 10 -26 15 -28 55 -2 44 -175 116 -267 112 l-56 -3 39 37
c21 21 38 40 38 42 0 3 -65 -28 -145 -69 -80 -40 -145 -71 -145 -67 0 4 -8 0
-17 -8 -10 -9 -29 -21 -43 -28 -24 -13 -24 -12 4 21 16 19 33 33 38 31 5 -1 7
2 3 8 -6 10 51 102 67 108 4 2 8 8 8 13 0 16 40 50 52 43 7 -4 8 -3 4 5 -5 8
3 16 23 24 39 14 39 32 1 52 -44 23 -56 19 -69 -22 -7 -21 -23 -51 -35 -66
l-23 -29 -6 76 c-3 41 -8 80 -12 86 -4 6 -17 -3 -32 -20 -24 -29 -103 -78
-103 -65 0 12 61 95 69 95 5 0 11 6 14 14 6 16 -19 11 -85 -17 -35 -15 -49
-11 -30 7 4 4 7 13 7 19 1 7 7 11 14 9 7 -1 10 2 7 7 -4 5 -2 21 4 35 9 24 6
28 -29 51 -22 13 -42 29 -46 35 -9 14 -25 2 -19 -14 4 -10 -6 -13 -38 -13 -28
1 -64 -9 -103 -27 -33 -16 -72 -29 -87 -30 -16 -1 -28 -5 -28 -11 0 -5 -4 -4
-9 3 -4 8 -11 13 -15 13 -23 -3 -19 4 24 49 44 46 79 108 62 112 -20 4 -38 3
-42 -2 -18 -21 -72 -50 -81 -44 -7 4 -9 3 -6 -3 3 -5 -13 -20 -36 -33 -63 -34
-161 -82 -172 -84 -5 -1 -15 -5 -22 -9 -6 -4 -32 -10 -58 -14 -45 -6 -46 -5
-40 19 6 22 3 25 -17 25 -13 0 -34 1 -48 2 -23 2 -23 3 10 18 19 9 41 15 48
14 6 -1 12 2 12 7 0 10 47 27 63 24 4 -1 7 3 7 9 0 6 7 8 16 5 10 -4 13 -2 8
6 -5 8 -2 9 9 5 10 -4 17 -2 17 4 0 6 7 8 16 5 8 -3 12 -2 9 3 -7 12 31 24 46
15 7 -4 9 -3 6 3 -7 11 70 44 108 47 13 0 21 3 19 5 -3 3 15 12 38 21 40 14
43 18 44 52 0 20 -2 37 -5 36 -21 -2 -30 4 -25 16 7 18 37 26 58 14 29 -16 17
3 -31 48 -52 48 -59 50 -87 29 -12 -9 -42 -15 -76 -15 -34 0 -64 -6 -76 -15
-18 -14 -18 -14 11 -15 17 -1 39 -3 50 -6 11 -2 41 -5 68 -6 26 -2 47 -5 47
-9 0 -15 -90 -77 -90 -62 0 4 -4 2 -8 -5 -5 -7 -36 -18 -70 -24 -95 -18 -174
13 -129 51 8 6 17 8 21 4 4 -4 5 -1 2 7 -4 10 11 28 41 50 l46 35 -43 7 c-24
4 -51 14 -59 23 -14 13 -13 15 9 15 14 0 31 4 39 9 20 13 -13 21 -78 19 -42
-2 -56 1 -67 17 -13 17 -19 59 -15 93 1 6 -2 20 -7 29 -8 13 -13 9 -28 -23
-17 -38 -93 -164 -104 -174 -3 -3 -17 -21 -32 -41 -39 -52 -129 -149 -138
-149 -10 0 -29 54 -34 96 -2 16 -7 41 -11 57 -11 44 12 84 74 126 31 21 59 38
64 37 6 -1 37 49 37 60 0 1 -12 -4 -27 -11 -31 -16 -43 -4 -23 21 18 21 5 29
-46 29 -35 0 -44 -3 -44 -16 0 -12 -6 -16 -20 -12 -11 3 -20 9 -20 13 0 4 -10
19 -21 34 l-22 27 -31 -29 c-33 -33 -121 -76 -173 -85 -35 -7 -38 -2 -23 37 5
14 6 26 2 26 -5 0 -40 31 -79 68 -39 38 -84 79 -101 93 -32 25 -47 74 -31 95
7 8 1 10 -17 6 -15 -3 -21 -8 -15 -12 26 -15 -104 -99 -179 -115 -58 -13 -130
-15 -157 -4 -24 9 -24 11 -10 32 20 31 10 44 -40 55 -33 8 -52 6 -95 -10 -84
-30 -102 -31 -131 -8 -22 18 -26 27 -22 56 4 36 49 99 69 99 6 0 10 8 8 18 -4
26 31 21 62 -9 14 -15 26 -32 26 -38 0 -6 10 -17 21 -24 21 -13 21 -13 5 9 -9
13 -16 27 -16 31 0 12 58 2 75 -12 13 -11 14 -10 9 4 -6 15 -84 76 -97 76 -13
0 -156 87 -194 117 -23 18 -43 33 -45 32 -2 0 -18 -5 -35 -10z m487 -605 c0
-8 4 -13 8 -10 13 8 28 -6 47 -43 l17 -34 -24 6 c-12 4 -26 7 -30 7 -10 0 -38
90 -27 90 5 0 9 -7 9 -16z m9578 -326 c8 -10 1 -13 -28 -13 -30 0 -36 2 -28
12 13 17 43 17 56 1z m-6348 -1109 c11 -19 10 -20 -9 -9 -12 6 -21 15 -21 20
0 18 19 11 30 -11z m4890 -489 c0 -5 -5 -10 -11 -10 -5 0 -7 5 -4 10 3 6 8 10
11 10 2 0 4 -4 4 -10z"/>
<path d="M699 9269 c-34 -28 -56 -38 -69 -34 -17 5 -18 3 -10 -26 5 -17 11
-34 13 -36 3 -2 27 19 55 46 29 28 63 53 77 57 30 7 32 20 5 27 -14 4 -37 -8
-71 -34z"/>
<path d="M1625 9300 c-3 -5 4 -10 15 -10 16 0 20 -4 16 -16 -8 -22 3 -38 17
-25 7 5 23 11 37 13 l25 4 -30 13 c-16 7 -38 17 -47 22 -22 11 -25 11 -33 -1z"/>
<path d="M2206 9302 c-3 -5 1 -9 9 -9 8 0 12 4 9 9 -3 4 -7 8 -9 8 -2 0 -6 -4
-9 -8z"/>
<path d="M2250 9285 c-16 -19 -5 -49 16 -41 9 3 22 6 30 6 19 0 18 36 -2 44
-23 9 -30 8 -44 -9z"/>
<path d="M2498 9293 c7 -3 16 -2 19 1 4 3 -2 6 -13 5 -11 0 -14 -3 -6 -6z"/>
<path d="M2558 9280 c12 -11 29 -20 38 -20 14 0 13 4 -6 20 -13 11 -30 20 -38
20 -12 0 -11 -5 6 -20z"/>
<path d="M1335 9279 c-12 -19 5 -23 22 -6 16 16 16 17 1 17 -9 0 -20 -5 -23
-11z"/>
<path d="M1590 9280 c-8 -5 -12 -12 -9 -15 4 -3 12 1 19 10 14 17 11 19 -10 5z"/>
<path d="M5136 9278 c3 -5 10 -6 15 -3 13 9 11 12 -6 12 -8 0 -12 -4 -9 -9z"/>
<path d="M1450 9273 c0 -19 11 -43 21 -43 13 0 11 14 -6 36 -8 10 -15 14 -15
7z"/>
<path d="M991 9252 c-13 -24 4 -42 36 -42 29 0 30 16 2 23 -15 4 -20 11 -16
21 9 22 -10 20 -22 -2z"/>
<path d="M1101 9263 c0 -6 -4 -20 -7 -30 -5 -14 -4 -15 5 -7 7 7 11 20 8 30
-3 11 -5 14 -6 7z"/>
<path d="M14010 9261 c0 -6 4 -13 10 -16 6 -3 7 1 4 9 -7 18 -14 21 -14 7z"/>
<path d="M14353 9263 c4 -3 1 -13 -6 -22 -11 -14 -10 -14 5 -2 16 12 16 31 1
31 -4 0 -3 -3 0 -7z"/>
<path d="M14410 9259 c0 -5 5 -7 10 -4 6 3 10 8 10 11 0 2 -4 4 -10 4 -5 0
-10 -5 -10 -11z"/>
<path d="M1315 9240 c-4 -6 2 -20 14 -31 24 -23 29 -5 7 24 -10 13 -16 15 -21
7z"/>
<path d="M1890 9239 c0 -5 4 -9 8 -9 5 0 14 -16 22 -35 8 -19 16 -35 19 -35
14 1 53 41 47 47 -13 14 -96 41 -96 32z"/>
<path d="M4379 9203 c19 -38 22 -39 37 -15 9 14 6 20 -21 33 l-33 15 17 -33z"/>
<path d="M1794 9200 c0 -13 4 -16 10 -10 7 7 7 13 0 20 -6 6 -10 3 -10 -10z"/>
<path d="M3109 9218 c0 -2 -3 -16 -5 -33 -3 -23 -2 -27 6 -15 28 39 31 50 15
50 -8 0 -15 -1 -16 -2z"/>
<path d="M14153 9207 c0 -8 6 -14 14 -14 9 0 10 4 2 14 -6 7 -12 13 -14 13 -1
0 -2 -6 -2 -13z"/>
<path d="M2018 9189 c-22 -9 -45 -36 -36 -44 2 -2 19 10 38 26 19 16 32 29 30
28 -3 0 -17 -5 -32 -10z"/>
<path d="M1102 9178 c-18 -18 -14 -32 13 -45 23 -10 25 -9 25 12 0 30 -22 49
-38 33z"/>
<path d="M14290 9181 c0 -6 4 -13 10 -16 6 -3 7 1 4 9 -7 18 -14 21 -14 7z"/>
<path d="M17800 9184 c0 -15 27 -50 34 -43 4 3 -2 17 -13 30 -11 13 -20 19
-21 13z"/>
<path d="M517 9160 c-3 -11 -2 -22 2 -24 4 -3 8 6 9 20 2 29 -4 31 -11 4z"/>
<path d="M3287 9172 c-34 -7 -11 -27 28 -24 21 1 41 4 43 7 14 14 -34 26 -71
17z"/>
<path d="M996 9154 c-9 -9 -14 -19 -11 -22 3 -3 13 2 22 11 9 9 14 19 11 22
-3 3 -13 -2 -22 -11z"/>
<path d="M1612 9130 c2 -23 7 -38 13 -35 6 3 17 8 25 11 9 3 22 14 29 26 8 12
8 17 1 13 -6 -4 -22 0 -35 9 -34 22 -36 21 -33 -24z"/>
<path d="M1705 9160 c-3 -6 1 -7 9 -4 18 7 21 14 7 14 -6 0 -13 -4 -16 -10z"/>
<path d="M4535 9160 c-3 -5 -1 -10 4 -10 6 0 11 5 11 10 0 6 -2 10 -4 10 -3 0
-8 -4 -11 -10z"/>
<path d="M2087 9131 c-4 -17 -2 -18 13 -8 10 6 16 15 14 19 -9 14 -22 9 -27
-11z"/>
<path d="M5010 9140 c0 -5 5 -10 11 -10 5 0 7 5 4 10 -3 6 -8 10 -11 10 -2 0
-4 -4 -4 -10z"/>
<path d="M4935 9130 c-4 -6 -11 -7 -17 -4 -7 4 -8 2 -4 -5 6 -9 11 -9 22 0 14
11 18 19 10 19 -3 0 -8 -5 -11 -10z"/>
<path d="M14956 9093 c-6 -14 -5 -15 5 -6 7 7 10 15 7 18 -3 3 -9 -2 -12 -12z"/>
<path d="M15030 9099 c0 -5 5 -7 10 -4 6 3 10 8 10 11 0 2 -4 4 -10 4 -5 0
-10 -5 -10 -11z"/>
<path d="M14993 9085 c0 -8 4 -12 9 -9 5 3 6 10 3 15 -9 13 -12 11 -12 -6z"/>
<path d="M2856 9075 c-9 -26 -7 -32 5 -12 6 10 9 21 6 23 -2 3 -7 -2 -11 -11z"/>
<path d="M3460 9080 c-8 -5 -45 -7 -82 -5 -39 3 -69 1 -73 -5 -9 -14 3 -46 18
-48 6 -1 32 -4 57 -7 25 -3 40 -2 35 2 -23 17 -10 38 23 38 21 0 37 6 43 18
11 19 2 22 -21 7z"/>
<path d="M4626 9082 c-3 -5 1 -9 9 -9 8 0 12 4 9 9 -3 4 -7 8 -9 8 -2 0 -6 -4
-9 -8z"/>
<path d="M14910 9079 c0 -5 5 -7 10 -4 6 3 10 8 10 11 0 2 -4 4 -10 4 -5 0
-10 -5 -10 -11z"/>
<path d="M2277 9056 c-6 -16 2 -28 14 -20 12 7 11 34 0 34 -5 0 -11 -6 -14
-14z"/>
<path d="M4855 9060 c3 -5 8 -10 11 -10 2 0 4 5 4 10 0 6 -5 10 -11 10 -5 0
-7 -4 -4 -10z"/>
<path d="M15574 9060 c-30 -12 -39 -29 -19 -36 11 -5 26 3 43 20 27 27 18 33
-24 16z"/>
<path d="M14590 9056 c0 -2 8 -10 18 -17 15 -13 16 -12 3 4 -13 16 -21 21 -21
13z"/>
<path d="M14902 9037 c2 -19 7 -22 39 -19 37 4 62 27 30 28 -9 1 -28 4 -43 7
-24 5 -27 3 -26 -16z"/>
<path d="M14650 9040 c0 -5 5 -10 11 -10 5 0 7 5 4 10 -3 6 -8 10 -11 10 -2 0
-4 -4 -4 -10z"/>
<path d="M14765 9040 c-3 -6 1 -7 9 -4 18 7 21 14 7 14 -6 0 -13 -4 -16 -10z"/>
<path d="M15281 9036 c-9 -11 -9 -16 1 -22 7 -4 10 -4 6 1 -4 4 -3 14 3 22 6
7 9 13 6 13 -2 0 -10 -6 -16 -14z"/>
<path d="M15115 9000 c-3 -5 -1 -10 4 -10 6 0 11 5 11 10 0 6 -2 10 -4 10 -3
0 -8 -4 -11 -10z"/>
<path d="M15146 8998 c3 -5 10 -6 15 -3 13 9 11 12 -6 12 -8 0 -12 -4 -9 -9z"/>
<path d="M2591 8992 c-18 -6 -51 -34 -51 -44 0 -13 33 -9 53 7 21 15 19 44 -2
37z"/>
<path d="M3196 8986 l-29 -12 36 -11 c29 -9 39 -8 47 2 18 22 -18 36 -54 21z"/>
<path d="M15857 8953 c3 -7 9 -10 14 -7 14 8 11 21 -5 21 -8 0 -12 -6 -9 -14z"/>
<path d="M16502 8899 l-32 -21 37 -19 c20 -10 38 -17 40 -15 2 1 0 19 -4 39
l-8 36 -33 -20z"/>
<path d="M16051 8886 c-8 -10 -9 -16 -1 -21 5 -3 13 1 16 10 9 22 -1 29 -15
11z"/>
<path d="M17014 8876 c-6 -15 12 -56 24 -56 4 0 13 9 19 19 10 16 8 22 -13 35
-21 14 -25 15 -30 2z"/>
<path d="M14850 8870 c0 -6 -12 -10 -26 -10 -16 0 -24 -5 -21 -12 4 -13 40
-18 65 -10 17 6 15 29 -3 36 -8 3 -15 1 -15 -4z"/>
<path d="M17150 8865 c-7 -9 -11 -18 -8 -20 3 -3 11 1 18 10 7 9 11 18 8 20
-3 3 -11 -1 -18 -10z"/>
<path d="M320 8862 c0 -10 22 -32 32 -32 5 0 3 9 -4 20 -13 20 -28 27 -28 12z"/>
<path d="M16142 8844 c-12 -13 -19 -24 -15 -24 11 0 25 12 42 33 20 26 -1 19
-27 -9z"/>
<path d="M17627 8851 c-4 -17 -3 -21 5 -13 5 5 8 16 6 23 -3 8 -7 3 -11 -10z"/>
<path d="M16178 8820 c-18 -17 -27 -29 -20 -25 7 4 20 1 29 -7 9 -7 17 -11 17
-9 1 2 24 -3 52 -13 28 -9 64 -16 80 -14 16 1 35 -1 41 -5 6 -4 14 -3 18 3 9
15 -19 23 -83 24 -54 1 -58 3 -74 34 -23 47 -22 47 -60 12z"/>
<path d="M13742 8828 c-17 -17 -15 -23 14 -37 34 -15 37 -11 15 22 -13 21 -20
24 -29 15z"/>
<path d="M15026 8815 c-16 -24 -16 -25 4 -25 15 0 20 7 20 25 0 14 -2 25 -4
25 -2 0 -11 -11 -20 -25z"/>
<path d="M17500 8820 c-46 -47 -105 -90 -123 -90 -10 0 -15 -4 -12 -10 13 -21
58 -9 97 26 26 23 47 34 59 31 20 -5 22 2 10 43 l-7 24 -24 -24z"/>
<path d="M15576 8818 c3 -5 10 -6 15 -3 13 9 11 12 -6 12 -8 0 -12 -4 -9 -9z"/>
<path d="M15655 8820 c-3 -5 -1 -10 4 -10 6 0 11 5 11 10 0 6 -2 10 -4 10 -3
0 -8 -4 -11 -10z"/>
<path d="M15694 8822 c8 -14 -22 -44 -36 -36 -7 4 -8 2 -4 -4 4 -6 13 -9 21
-5 8 3 15 0 15 -6 0 -6 5 -11 12 -11 9 0 9 3 0 12 -7 7 -8 17 -2 29 7 12 6 20
-2 25 -6 4 -8 3 -4 -4z"/>
<path d="M2709 8803 c-13 -16 -12 -17 4 -4 16 13 21 21 13 21 -2 0 -10 -8 -17
-17z"/>
<path d="M15149 8803 c-13 -16 -12 -17 4 -4 9 7 17 15 17 17 0 8 -8 3 -21 -13z"/>
<path d="M16346 8807 c3 -10 9 -15 12 -12 3 3 0 11 -7 18 -10 9 -11 8 -5 -6z"/>
<path d="M2766 8798 c3 -5 10 -6 15 -3 13 9 11 12 -6 12 -8 0 -12 -4 -9 -9z"/>
<path d="M16810 8803 c0 -5 5 -15 10 -23 6 -10 3 -22 -13 -39 -14 -15 -17 -22
-7 -19 8 3 23 18 32 34 17 28 17 30 -2 42 -11 7 -20 9 -20 5z"/>
<path d="M17111 8786 c-9 -11 -8 -14 6 -12 13 1 18 -6 17 -22 -1 -23 -1 -23
19 -3 11 11 17 26 14 35 -8 20 -41 21 -56 2z"/>
<path d="M15565 8780 c-3 -6 1 -7 9 -4 18 7 21 14 7 14 -6 0 -13 -4 -16 -10z"/>
<path d="M17041 8771 l-24 -18 23 1 c14 1 24 8 26 19 3 21 4 21 -25 -2z"/>
<path d="M2911 8767 c-8 -10 -7 -14 2 -14 8 0 14 6 14 14 0 7 -1 13 -2 13 -2
0 -8 -6 -14 -13z"/>
<path d="M16131 8760 c-13 -11 -29 -20 -37 -20 -11 0 -10 -7 4 -34 9 -19 20
-32 23 -30 4 2 9 -6 12 -17 6 -23 -10 -45 -30 -43 -7 1 -19 2 -27 3 -8 0 -17
13 -21 28 -6 24 -8 25 -16 11 -5 -10 -31 -29 -58 -45 -27 -15 -57 -40 -66 -56
l-17 -29 35 5 c27 3 34 1 30 -9 -3 -8 -9 -14 -15 -14 -5 0 -6 -5 -3 -10 4 -6
14 -2 24 11 25 31 77 32 106 3 24 -24 41 -32 31 -15 -3 5 1 14 9 21 8 7 15 19
15 26 0 8 4 14 9 14 5 0 9 6 8 13 -1 39 4 58 15 51 7 -5 8 -3 3 6 -4 7 -7 44
-6 82 1 37 1 68 -1 68 -2 -1 -14 -10 -27 -20z"/>
<path d="M16681 8756 c7 -14 16 -26 20 -26 12 0 -6 43 -20 48 -9 3 -9 -2 0
-22z"/>
<path d="M4131 8754 c0 -11 3 -14 6 -6 3 7 2 16 -1 19 -3 4 -6 -2 -5 -13z"/>
<path d="M15850 8758 c0 -5 -5 -6 -11 -2 -7 4 -6 -3 2 -17 7 -13 12 -28 11
-32 -1 -4 6 -4 15 1 10 5 23 7 29 5 6 -2 14 4 18 14 3 10 9 25 12 33 5 13 4
13 -5 0 -7 -9 -11 -10 -11 -3 0 6 -13 11 -30 11 -16 -1 -30 -5 -30 -10z"/>
<path d="M16474 8760 c-5 -5 -20 -10 -34 -12 -23 -4 -23 -5 -5 -12 11 -4 31
-13 45 -20 15 -7 34 -10 45 -5 17 6 16 8 -8 8 -24 1 -26 3 -18 20 8 14 7 20
-3 24 -7 3 -17 2 -22 -3z"/>
<path d="M2995 8740 c-3 -5 -1 -10 4 -10 6 0 11 5 11 10 0 6 -2 10 -4 10 -3 0
-8 -4 -11 -10z"/>
<path d="M15571 8724 c15 -16 25 -21 30 -13 9 15 -9 35 -34 36 -18 2 -18 0 4
-23z"/>
<path d="M16555 8741 c-3 -6 3 -9 14 -8 11 0 17 5 15 9 -7 11 -22 10 -29 -1z"/>
<path d="M16322 8703 c-18 -21 -32 -48 -32 -60 0 -20 5 -22 39 -20 28 1 37 5
30 14 -7 7 -3 17 13 28 14 11 17 15 6 12 -21 -7 -35 11 -15 19 14 5 12 44 -2
44 -4 0 -21 -17 -39 -37z"/>
<path d="M15630 8716 c0 -2 7 -7 16 -10 8 -3 12 -2 9 4 -6 10 -25 14 -25 6z"/>
<path d="M15935 8710 c3 -5 8 -10 11 -10 2 0 4 5 4 10 0 6 -5 10 -11 10 -5 0
-7 -4 -4 -10z"/>
<path d="M13753 8703 c-14 -5 -18 -23 -5 -23 5 0 16 6 26 13 19 14 6 19 -21
10z"/>
<path d="M16757 8682 c-17 -19 -17 -20 5 -25 27 -7 26 -8 19 21 -6 24 -6 24
-24 4z"/>
<path d="M17040 8665 c-7 -9 -8 -15 -2 -15 5 0 12 7 16 15 3 8 4 15 2 15 -2 0
-9 -7 -16 -15z"/>
<path d="M16715 8660 c-3 -5 -1 -10 4 -10 6 0 11 5 11 10 0 6 -2 10 -4 10 -3
0 -8 -4 -11 -10z"/>
<path d="M16875 8633 c-12 -18 -15 -31 -8 -41 17 -27 28 -17 28 25 0 24 -1 43
-1 43 -1 0 -10 -12 -19 -27z"/>
<path d="M17413 8653 c-37 -5 -43 -18 -13 -26 11 -3 27 1 35 10 13 12 21 27
13 21 -2 0 -18 -3 -35 -5z"/>
<path d="M15791 8632 c-6 -11 -6 -24 -1 -32 7 -11 11 -8 19 13 13 35 13 37 1
37 -5 0 -14 -8 -19 -18z"/>
<path d="M15695 8620 c3 -5 8 -10 11 -10 2 0 4 5 4 10 0 6 -5 10 -11 10 -5 0
-7 -4 -4 -10z"/>
<path d="M13575 8600 c-3 -5 -1 -10 4 -10 6 0 11 5 11 10 0 6 -2 10 -4 10 -3
0 -8 -4 -11 -10z"/>
<path d="M16750 8574 c0 -11 20 -52 47 -98 3 -5 10 -1 15 8 13 23 42 21 35 -3
-3 -14 -1 -18 9 -14 8 3 14 10 14 17 0 19 -17 39 -28 32 -6 -3 -29 11 -51 32
-23 22 -41 33 -41 26z"/>
<path d="M16494 8572 c-21 -7 -21 -7 -2 -37 10 -16 18 -23 18 -15 0 8 10 20
22 25 52 24 21 45 -38 27z"/>
<path d="M13547 8559 c7 -7 15 -10 18 -7 3 3 -2 9 -12 12 -14 6 -15 5 -6 -5z"/>
<path d="M4034 8527 c-44 -52 -47 -60 -12 -32 36 30 54 55 39 55 -4 0 -16 -10
-27 -23z"/>
<path d="M16170 8495 c0 -8 9 -15 20 -15 11 0 20 7 20 15 0 8 -9 15 -20 15
-11 0 -20 -7 -20 -15z"/>
<path d="M15970 8479 c0 -5 5 -7 10 -4 6 3 10 8 10 11 0 2 -4 4 -10 4 -5 0
-10 -5 -10 -11z"/>
<path d="M13460 8446 c0 -2 8 -10 18 -17 15 -13 16 -12 3 4 -13 16 -21 21 -21
13z"/>
<path d="M3395 8429 c-4 -6 -5 -12 -2 -15 2 -3 7 2 10 11 7 17 1 20 -8 4z"/>
<path d="M13513 8405 c0 -8 4 -12 9 -9 5 3 6 10 3 15 -9 13 -12 11 -12 -6z"/>
<path d="M4435 8400 c3 -5 8 -10 11 -10 2 0 4 5 4 10 0 6 -5 10 -11 10 -5 0
-7 -4 -4 -10z"/>
<path d="M3451 8387 c2 -1 13 -9 24 -17 19 -14 19 -14 6 3 -7 9 -18 17 -24 17
-6 0 -8 -1 -6 -3z"/>
<path d="M13390 8379 c0 -5 5 -7 10 -4 6 3 10 8 10 11 0 2 -4 4 -10 4 -5 0
-10 -5 -10 -11z"/>
<path d="M4944 8336 c-13 -10 -23 -11 -32 -4 -17 14 -26 3 -17 -19 5 -10 7
-23 7 -28 -1 -6 14 -11 33 -12 30 -1 38 4 51 28 23 45 0 65 -42 35z"/>
<path d="M4739 8328 c-5 -18 -6 -38 -1 -34 7 8 12 36 6 36 -2 0 -4 -1 -5 -2z"/>
<path d="M4630 8279 c0 -5 5 -7 10 -4 6 3 10 8 10 11 0 2 -4 4 -10 4 -5 0 -10
-5 -10 -11z"/>
<path d="M3596 8233 c-6 -14 -5 -15 5 -6 7 7 10 15 7 18 -3 3 -9 -2 -12 -12z"/>
<path d="M3630 8238 c0 -4 4 -8 9 -8 6 0 12 4 15 8 3 5 -1 9 -9 9 -8 0 -15 -4
-15 -9z"/>
<path d="M3820 8226 c0 -2 7 -7 16 -10 8 -3 12 -2 9 4 -6 10 -25 14 -25 6z"/>
<path d="M4510 8219 c0 -5 5 -7 10 -4 6 3 10 8 10 11 0 2 -4 4 -10 4 -5 0 -10
-5 -10 -11z"/>
<path d="M13213 8215 c0 -8 4 -12 9 -9 5 3 6 10 3 15 -9 13 -12 11 -12 -6z"/>
<path d="M3646 8198 c3 -5 10 -6 15 -3 13 9 11 12 -6 12 -8 0 -12 -4 -9 -9z"/>
<path d="M4476 8202 c-3 -5 1 -9 9 -9 8 0 12 4 9 9 -3 4 -7 8 -9 8 -2 0 -6 -4
-9 -8z"/>
<path d="M3913 8185 c0 -8 4 -12 9 -9 5 3 6 10 3 15 -9 13 -12 11 -12 -6z"/>
<path d="M4389 8183 c-13 -16 -12 -17 4 -4 9 7 17 15 17 17 0 8 -8 3 -21 -13z"/>
<path d="M3855 8180 c3 -5 8 -10 11 -10 2 0 4 5 4 10 0 6 -5 10 -11 10 -5 0
-7 -4 -4 -10z"/>
<path d="M3947 8179 c7 -7 15 -10 18 -7 3 3 -2 9 -12 12 -14 6 -15 5 -6 -5z"/>
<path d="M13140 8155 c-7 -9 -11 -17 -9 -20 3 -2 10 5 17 15 14 24 10 26 -8 5z"/>
<path d="M4140 8079 c0 -5 5 -7 10 -4 6 3 10 8 10 11 0 2 -4 4 -10 4 -5 0 -10
-5 -10 -11z"/>
<path d="M13000 8020 c-9 -6 -10 -10 -3 -10 6 0 15 5 18 10 8 12 4 12 -15 0z"/>
<path d="M4376 7953 c-6 -14 -5 -15 5 -6 7 7 10 15 7 18 -3 3 -9 -2 -12 -12z"/>
<path d="M4265 7940 c-3 -6 1 -7 9 -4 18 7 21 14 7 14 -6 0 -13 -4 -16 -10z"/>
<path d="M5418 7928 c-8 -13 -23 -41 -33 -63 -10 -22 -20 -43 -22 -47 -6 -12
4 -9 19 5 7 7 41 34 76 61 63 50 77 65 43 46 -20 -10 -51 -4 -62 12 -3 5 -13
-1 -21 -14z"/>
<path d="M12896 7918 c3 -5 10 -6 15 -3 13 9 11 12 -6 12 -8 0 -12 -4 -9 -9z"/>
<path d="M12835 7860 c-3 -5 -1 -10 4 -10 6 0 11 5 11 10 0 6 -2 10 -4 10 -3
0 -8 -4 -11 -10z"/>
<path d="M4517 7793 c1 -32 2 -61 3 -65 1 -17 17 -7 33 21 16 28 16 29 -4 42
-11 8 -21 24 -22 37 -1 12 -4 22 -7 22 -3 0 -4 -26 -3 -57z"/>
<path d="M4649 7803 c-13 -16 -12 -17 4 -4 9 7 17 15 17 17 0 8 -8 3 -21 -13z"/>
<path d="M4635 7761 c-3 -5 -2 -12 3 -15 5 -3 9 1 9 9 0 17 -3 19 -12 6z"/>
<path d="M12655 7719 c5 -7 52 -6 59 2 3 2 -10 5 -29 5 -18 0 -32 -3 -30 -7z"/>
<path d="M12735 7711 c-3 -5 -2 -12 3 -15 5 -3 9 1 9 9 0 17 -3 19 -12 6z"/>
<path d="M4910 7696 c7 -7 13 -7 20 0 6 6 3 10 -10 10 -13 0 -16 -4 -10 -10z"/>
<path d="M4950 7680 c0 -5 5 -10 10 -10 6 0 10 5 10 10 0 6 -4 10 -10 10 -5 0
-10 -4 -10 -10z"/>
<path d="M12570 7560 c0 -5 5 -10 11 -10 5 0 7 5 4 10 -3 6 -8 10 -11 10 -2 0
-4 -4 -4 -10z"/>
<path d="M12376 7418 c3 -5 10 -6 15 -3 13 9 11 12 -6 12 -8 0 -12 -4 -9 -9z"/>
<path d="M12199 7333 c-12 -16 -12 -17 2 -6 9 7 20 9 24 5 5 -4 5 -1 1 6 -9
16 -11 15 -27 -5z"/>
<path d="M12275 7320 c-3 -5 -1 -10 4 -10 6 0 11 5 11 10 0 6 -2 10 -4 10 -3
0 -8 -4 -11 -10z"/>
<path d="M11916 7282 c-3 -5 1 -9 9 -9 8 0 12 4 9 9 -3 4 -7 8 -9 8 -2 0 -6
-4 -9 -8z"/>
<path d="M12093 7245 c0 -8 4 -12 9 -9 5 3 6 10 3 15 -9 13 -12 11 -12 -6z"/>
<path d="M12056 7233 c-6 -14 -5 -15 5 -6 7 7 10 15 7 18 -3 3 -9 -2 -12 -12z"/>
<path d="M12116 7207 c3 -10 9 -15 12 -12 3 3 0 11 -7 18 -10 9 -11 8 -5 -6z"/>
<path d="M11975 7200 c-3 -5 -1 -10 4 -10 6 0 11 5 11 10 0 6 -2 10 -4 10 -3
0 -8 -4 -11 -10z"/>
<path d="M12016 7193 c-6 -14 -5 -15 5 -6 7 7 10 15 7 18 -3 3 -9 -2 -12 -12z"/>
<path d="M5747 7159 c7 -7 15 -10 18 -7 3 3 -2 9 -12 12 -14 6 -15 5 -6 -5z"/>
<path d="M5776 7122 c-3 -5 1 -9 9 -9 8 0 12 4 9 9 -3 4 -7 8 -9 8 -2 0 -6 -4
-9 -8z"/>
<path d="M7661 7099 c-1 -15 6 -29 14 -33 12 -4 13 -2 7 12 -5 9 -12 24 -15
32 -3 9 -6 4 -6 -11z"/>
<path d="M10438 7053 c6 -2 18 -2 25 0 6 3 1 5 -13 5 -14 0 -19 -2 -12 -5z"/>
<path d="M11730 7019 c0 -5 5 -7 10 -4 6 3 10 8 10 11 0 2 -4 4 -10 4 -5 0
-10 -5 -10 -11z"/>
<path d="M5940 7006 c0 -2 8 -10 18 -17 15 -13 16 -12 3 4 -13 16 -21 21 -21
13z"/>
<path d="M11673 6985 c0 -8 4 -12 9 -9 5 3 6 10 3 15 -9 13 -12 11 -12 -6z"/>
<path d="M8772 6941 c-9 -6 -8 -12 7 -25 16 -14 19 -15 24 -2 7 18 -15 37 -31
27z"/>
<path d="M11585 6920 c-3 -6 1 -7 9 -4 18 7 21 14 7 14 -6 0 -13 -4 -16 -10z"/>
<path d="M11535 6911 c-3 -5 -2 -12 3 -15 5 -3 9 1 9 9 0 17 -3 19 -12 6z"/>
<path d="M5990 6899 c0 -5 5 -7 10 -4 6 3 10 8 10 11 0 2 -4 4 -10 4 -5 0 -10
-5 -10 -11z"/>
<path d="M6055 6900 c3 -5 8 -10 11 -10 2 0 4 5 4 10 0 6 -5 10 -11 10 -5 0
-7 -4 -4 -10z"/>
<path d="M6220 6900 c-12 -7 -10 -9 7 -7 12 0 19 5 17 9 -6 10 -6 10 -24 -2z"/>
<path d="M11467 6899 c7 -7 15 -10 18 -7 3 3 -2 9 -12 12 -14 6 -15 5 -6 -5z"/>
<path d="M9180 6850 c0 -11 2 -20 5 -20 2 0 9 9 15 20 9 16 8 20 -5 20 -8 0
-15 -9 -15 -20z"/>
<path d="M6556 6778 c3 -4 11 -5 19 -1 21 7 19 12 -4 10 -11 0 -18 -5 -15 -9z"/>
<path d="M6615 6780 c3 -5 8 -10 11 -10 2 0 4 5 4 10 0 6 -5 10 -11 10 -5 0
-7 -4 -4 -10z"/>
<path d="M6786 6758 c3 -5 10 -6 15 -3 13 9 11 12 -6 12 -8 0 -12 -4 -9 -9z"/>
<path d="M6685 6740 c-3 -6 1 -7 9 -4 18 7 21 14 7 14 -6 0 -13 -4 -16 -10z"/>
<path d="M6855 6740 c3 -5 8 -10 11 -10 2 0 4 5 4 10 0 6 -5 10 -11 10 -5 0
-7 -4 -4 -10z"/>
<path d="M11236 6718 c3 -5 10 -6 15 -3 13 9 11 12 -6 12 -8 0 -12 -4 -9 -9z"/>
<path d="M11275 6721 c-3 -5 -2 -12 3 -15 5 -3 9 1 9 9 0 17 -3 19 -12 6z"/>
<path d="M11305 6700 c-3 -6 1 -7 9 -4 18 7 21 14 7 14 -6 0 -13 -4 -16 -10z"/>
<path d="M6973 6676 c-3 -6 -3 -8 2 -4 4 4 13 3 20 -2 8 -7 12 -5 12 3 0 16
-25 18 -34 3z"/>
<path d="M11001 6676 c-9 -11 -9 -16 1 -22 7 -4 10 -4 6 1 -4 4 -3 14 3 22 6
7 9 13 6 13 -2 0 -10 -6 -16 -14z"/>
<path d="M10006 6478 c3 -5 10 -6 15 -3 13 9 11 12 -6 12 -8 0 -12 -4 -9 -9z"/>
<path d="M10500 6446 c0 -2 8 -10 18 -17 15 -13 16 -12 3 4 -13 16 -21 21 -21
13z"/>
<path d="M10636 6407 c3 -10 9 -15 12 -12 3 3 0 11 -7 18 -10 9 -11 8 -5 -6z"/>
<path d="M10216 6402 c-3 -5 1 -9 9 -9 8 0 12 4 9 9 -3 4 -7 8 -9 8 -2 0 -6
-4 -9 -8z"/>
<path d="M10339 6394 c-7 -8 -7 -14 1 -19 6 -4 9 -1 8 6 -2 7 2 13 9 14 17 0
25 12 8 12 -8 0 -20 -6 -26 -13z"/>
<path d="M10490 6406 c0 -2 7 -7 16 -10 8 -3 12 -2 9 4 -6 10 -25 14 -25 6z"/>
<path d="M7787 6379 c7 -7 15 -10 18 -7 3 3 -2 9 -12 12 -14 6 -15 5 -6 -5z"/>
<path d="M7525 6319 c-3 -4 2 -6 10 -5 21 3 28 13 10 13 -9 0 -18 -4 -20 -8z"/>
<path d="M7716 6318 c3 -5 10 -6 15 -3 13 9 11 12 -6 12 -8 0 -12 -4 -9 -9z"/>
<path d="M8140 6319 c0 -5 5 -7 10 -4 6 3 10 8 10 11 0 2 -4 4 -10 4 -5 0 -10
-5 -10 -11z"/>
<path d="M7981 6301 c-11 -11 -23 -16 -27 -13 -4 4 -4 1 0 -5 5 -10 12 -9 30
2 12 8 26 12 30 8 4 -4 4 0 0 10 -8 21 -10 21 -33 -2z"/>
<path d="M7500 6306 c0 -2 8 -10 18 -17 15 -13 16 -12 3 4 -13 16 -21 21 -21
13z"/>
<path d="M7680 6300 c-8 -5 -10 -10 -5 -10 6 0 17 5 25 10 8 5 11 10 5 10 -5
0 -17 -5 -25 -10z"/>
<path d="M7865 6300 c-3 -6 1 -7 9 -4 18 7 21 14 7 14 -6 0 -13 -4 -16 -10z"/>
<path d="M8170 6299 c0 -5 5 -7 10 -4 6 3 10 8 10 11 0 2 -4 4 -10 4 -5 0 -10
-5 -10 -11z"/>
<path d="M8914 6206 c1 -8 5 -18 8 -22 4 -3 5 1 4 10 -1 8 -5 18 -8 22 -4 3
-5 -1 -4 -10z"/>
<path d="M8627 6199 c7 -7 15 -10 18 -7 3 3 -2 9 -12 12 -14 6 -15 5 -6 -5z"/>
<path d="M9070 6199 c0 -5 5 -7 10 -4 6 3 10 8 10 11 0 2 -4 4 -10 4 -5 0 -10
-5 -10 -11z"/>
<path d="M9280 6200 c-12 -7 -10 -9 7 -7 12 0 19 5 17 9 -6 10 -6 10 -24 -2z"/>
<path d="M9710 6201 c0 -6 4 -13 10 -16 6 -3 7 1 4 9 -7 18 -14 21 -14 7z"/>
<path d="M8713 6185 c0 -8 4 -12 9 -9 5 3 6 10 3 15 -9 13 -12 11 -12 -6z"/>
<path d="M9573 6185 c0 -8 4 -12 9 -9 5 3 6 10 3 15 -9 13 -12 11 -12 -6z"/>
<path d="M8766 6178 c3 -5 10 -6 15 -3 13 9 11 12 -6 12 -8 0 -12 -4 -9 -9z"/>
<path d="M9015 6180 c3 -5 8 -10 11 -10 2 0 4 5 4 10 0 6 -5 10 -11 10 -5 0
-7 -4 -4 -10z"/>
<path d="M8930 6160 c0 -5 5 -10 11 -10 5 0 7 5 4 10 -3 6 -8 10 -11 10 -2 0
-4 -4 -4 -10z"/>
<path d="M9270 6166 c0 -2 7 -7 16 -10 8 -3 12 -2 9 4 -6 10 -25 14 -25 6z"/>
<path d="M9713 6153 c0 -9 4 -10 14 -2 7 6 13 12 13 14 0 1 -6 2 -13 2 -8 0
-14 -6 -14 -14z"/>
</g>
</svg>
