<?xml version="1.0" standalone="no"?>
<!DOCTYPE svg PUBLIC "-//W3C//DTD SVG 20010904//EN"
 "http://www.w3.org/TR/2001/REC-SVG-20010904/DTD/svg10.dtd">
<svg version="1.0" xmlns="http://www.w3.org/2000/svg"
 width="453.000000pt" height="453.000000pt" viewBox="0 0 453.000000 453.000000"
 preserveAspectRatio="xMidYMid meet">
<metadata>
Created by potrace 1.14, written by Peter Selinger 2001-2017
</metadata>
<g transform="translate(0.000000,453.000000) scale(0.100000,-0.100000)"
fill="#000000" stroke="none">
<path d="M1985 2980 c-8 -9 -15 -27 -15 -41 -1 -21 -2 -22 -13 -8 -15 20 -57
19 -169 -7 -5 -1 -10 -3 -13 -4 -3 -1 -11 -3 -17 -4 -7 0 -13 -6 -13 -13 0 -6
-3 -15 -7 -19 -5 -4 -8 -1 -8 7 0 11 -2 11 -10 -1 -5 -8 -10 -11 -10 -7 0 5
-8 1 -17 -9 -11 -11 -18 -13 -21 -5 -6 17 -22 3 -22 -20 0 -10 -6 -19 -14 -19
-27 0 -76 -35 -91 -65 -8 -16 -15 -24 -15 -17 0 18 -47 4 -76 -23 -14 -13 -37
-28 -53 -35 -16 -6 -31 -21 -34 -32 -3 -11 -10 -17 -16 -13 -6 3 -11 1 -11 -6
0 -13 -147 -159 -161 -159 -5 0 -9 -9 -9 -21 0 -11 -4 -18 -9 -15 -12 7 -22
-20 -15 -38 3 -8 13 -15 22 -15 9 0 30 -3 46 -7 23 -5 27 -4 21 6 -6 10 -4 12
7 7 10 -3 25 7 43 29 15 19 31 34 36 34 14 0 49 33 49 47 0 7 11 15 25 19 14
3 25 13 25 21 0 12 3 13 14 4 12 -10 18 -7 31 19 9 18 19 29 22 26 7 -6 37 31
46 57 4 10 11 16 16 12 6 -3 14 2 19 11 5 9 12 15 15 15 20 -3 25 1 31 24 4
14 11 25 17 25 6 0 7 -4 4 -10 -3 -5 1 -10 10 -10 8 0 18 7 22 16 3 8 11 13
18 11 6 -3 12 1 12 8 0 8 -7 11 -15 7 -10 -3 -13 -1 -8 6 9 14 36 16 36 2 0
-6 9 -6 26 0 19 7 31 7 40 -1 12 -9 11 -6 0 16 -8 16 -12 33 -9 39 4 6 8 6 11
-2 2 -7 9 -9 15 -5 7 4 5 -2 -3 -12 -10 -12 -10 -16 -2 -11 7 4 20 2 28 -5 12
-10 13 -9 8 4 -4 12 -1 15 16 12 16 -3 20 0 16 10 -6 17 9 21 19 5 4 -6 11 -8
16 -5 5 4 9 1 9 -5 0 -7 6 -5 15 4 8 8 15 20 15 26 0 6 4 9 9 5 6 -3 14 3 20
12 9 16 10 16 11 1 0 -9 5 -20 10 -23 6 -4 10 -3 9 2 -3 20 2 27 11 13 8 -12
10 -10 10 8 0 13 4 20 10 17 6 -4 8 -10 5 -15 -3 -5 -1 -11 4 -15 5 -3 14 3
20 12 9 16 12 16 21 3 5 -8 10 -11 10 -6 0 5 7 3 15 -4 12 -10 19 -10 27 -2
15 15 31 16 23 1 -4 -6 3 -5 14 3 18 11 23 11 31 -2 8 -12 10 -12 10 -1 0 7 6
11 15 8 8 -4 17 -2 19 2 3 5 17 6 31 3 20 -3 23 -7 14 -18 -8 -10 -5 -12 18
-7 15 3 34 6 41 6 6 0 12 4 12 9 0 5 5 6 10 3 6 -3 10 -1 10 5 0 7 5 6 14 -2
8 -7 12 -16 10 -19 -2 -3 3 -6 11 -6 8 0 12 4 10 8 -3 3 4 9 15 12 22 6 28 -8
8 -16 -8 -3 -5 -6 5 -6 10 -1 16 -5 13 -10 -3 -5 2 -15 11 -22 14 -12 15 -11
9 9 -8 25 5 29 24 7 7 -8 16 -13 20 -10 5 3 11 1 15 -4 3 -6 13 -7 22 -4 12 5
14 3 8 -8 -7 -11 -6 -12 6 -2 20 16 31 17 40 2 6 -10 11 -10 22 -1 12 10 18 9
31 -3 9 -9 14 -21 11 -25 -5 -8 12 -7 40 1 16 5 55 -20 55 -35 0 -11 26 -15
38 -6 1 2 7 4 12 5 6 1 11 3 13 5 8 7 36 7 32 0 -3 -5 -3 -20 0 -33 5 -18 12
-23 25 -20 10 3 23 -4 32 -16 8 -12 26 -22 41 -23 14 -1 23 -6 21 -10 -3 -4 0
-8 6 -8 6 0 9 -4 6 -8 -2 -4 4 -13 15 -20 16 -10 19 -9 19 4 0 8 -4 13 -9 10
-5 -3 -11 1 -14 9 -4 9 5 20 25 30 30 15 31 15 14 -4 -14 -15 -15 -24 -7 -39
7 -12 7 -22 0 -29 -6 -6 -5 -10 5 -10 8 0 13 4 10 9 -3 4 2 8 11 8 9 0 14 -4
11 -9 -12 -19 23 -33 55 -22 27 9 30 9 19 -4 -7 -9 -9 -19 -5 -23 4 -4 10 -1
12 6 3 6 9 10 14 6 5 -3 9 0 9 5 0 6 3 10 8 9 4 0 15 2 25 7 10 4 21 4 25 1 8
-9 -19 -27 -30 -20 -4 3 -8 0 -8 -6 0 -6 -4 -8 -10 -5 -5 3 -10 1 -10 -4 0 -6
-3 -10 -8 -8 -4 1 -8 -2 -9 -7 -1 -5 -7 -13 -15 -17 -10 -7 -10 -9 0 -9 7 0
11 -4 7 -9 -3 -6 4 -9 15 -8 15 1 18 6 14 20 -4 13 -2 17 5 13 6 -4 11 -1 11
6 0 10 2 10 9 -1 7 -11 9 -11 14 0 4 10 6 9 6 -3 1 -10 -4 -18 -10 -18 -6 0 3
-13 19 -30 31 -30 44 -38 39 -21 -1 5 9 23 22 41 21 29 25 31 33 16 7 -13 5
-22 -6 -35 -20 -22 -21 -45 -1 -38 8 4 17 2 20 -3 4 -6 18 -3 33 7 15 9 24 13
20 9 -4 -5 10 -23 30 -42 20 -19 37 -39 37 -46 0 -6 6 -12 13 -14 7 -1 8 0 2
3 -8 3 -7 9 1 19 9 11 8 14 -7 14 -26 0 -5 18 26 23 16 3 30 -3 38 -15 11 -15
17 -17 28 -7 23 19 35 -2 19 -31 -11 -19 -14 -21 -15 -7 0 17 -20 25 -20 8 0
-12 19 -25 40 -28 8 -1 16 -7 18 -13 2 -6 14 1 27 14 15 17 30 24 40 20 13 -6
14 -8 3 -15 -10 -7 -11 -9 0 -9 7 0 10 -6 7 -12 -4 -7 3 -1 15 14 13 17 27 25
38 22 9 -3 1 3 -18 14 -21 11 -40 15 -46 10 -17 -13 -42 1 -46 25 -2 14 -11
22 -24 23 -12 1 -28 5 -35 10 -8 5 -16 9 -19 9 -28 4 -51 19 -46 31 3 8 2 13
-3 10 -10 -6 -61 38 -61 52 0 13 -35 24 -83 26 -24 2 -46 11 -60 25 -12 12
-38 30 -57 39 -26 13 -34 22 -31 37 3 20 3 20 -18 1 -12 -11 -21 -14 -21 -8 0
10 -29 24 -55 27 -21 2 -45 18 -45 29 0 6 -11 12 -23 12 -13 1 -35 12 -49 25
-35 33 -82 64 -90 61 -5 -1 -8 2 -8 7 0 5 -13 19 -30 31 -25 18 -32 19 -50 8
-18 -11 -23 -10 -34 4 -7 10 -33 20 -57 24 -24 3 -54 13 -66 20 -12 8 -28 11
-35 9 -19 -8 -58 31 -58 58 0 16 -3 18 -9 9 -7 -11 -9 -11 -14 1 -4 12 -14 13
-43 7 -27 -6 -43 -5 -57 5 -14 10 -26 11 -44 4 -17 -6 -30 -6 -38 1 -7 6 -20
8 -29 4 -9 -3 -22 -2 -29 4 -6 5 -48 10 -92 10 -44 0 -110 2 -147 5 -54 3 -71
1 -83 -13z m810 -191 c-4 -5 -13 -9 -21 -9 -8 0 -14 -4 -14 -10 0 -5 -5 -10
-11 -10 -8 0 -8 5 1 15 7 8 19 15 27 15 8 0 11 5 7 12 -4 7 -3 8 5 4 6 -4 9
-12 6 -17z"/>
<path d="M2138 2745 c-2 -2 -21 -5 -43 -8 -107 -12 -228 -89 -290 -183 -32
-48 -61 -140 -59 -189 2 -72 42 -170 91 -226 31 -34 114 -91 158 -106 17 -6
39 -14 50 -19 72 -26 251 -23 305 6 11 6 20 8 20 6 0 -7 85 41 112 62 94 76
140 161 146 267 5 100 -23 171 -104 261 -32 36 -130 91 -193 110 -46 14 -184
27 -193 19z"/>
<path d="M2820 2709 c-13 -9 -12 -10 3 -5 11 3 17 0 17 -10 0 -8 4 -13 10 -9
9 6 3 35 -9 35 -3 0 -13 -5 -21 -11z"/>
<path d="M3111 2514 c0 -11 3 -14 6 -6 3 7 2 16 -1 19 -3 4 -6 -2 -5 -13z"/>
<path d="M573 2457 c-3 -5 1 -13 8 -18 8 -5 15 -4 17 1 2 6 7 8 12 5 4 -3 10
2 14 10 4 11 -1 14 -20 13 -14 -2 -28 -6 -31 -11z"/>
<path d="M527 2430 c-3 -11 -1 -23 4 -26 5 -3 9 6 9 20 0 31 -6 34 -13 6z"/>
<path d="M730 2428 c0 -16 -32 -37 -47 -31 -7 3 -13 13 -13 22 -1 14 -2 14
-11 -2 -6 -9 -14 -15 -20 -12 -5 4 -9 -2 -9 -11 0 -10 3 -15 6 -11 4 3 15 -4
25 -16 16 -19 18 -20 19 -4 0 20 23 23 38 5 10 -13 12 -19 12 -38 0 -5 9 -10
21 -10 13 0 18 -4 13 -12 -6 -10 -4 -10 8 0 14 11 18 10 27 -5 6 -11 11 -13
11 -5 0 7 5 10 10 7 6 -4 7 -11 4 -17 -5 -7 -1 -9 9 -5 11 4 17 1 17 -9 0 -8
4 -13 9 -10 11 7 67 -62 63 -77 -2 -6 4 -5 12 3 15 12 21 7 16 -15 -1 -5 4 -5
11 2 7 7 19 9 34 3 14 -5 27 -4 33 2 8 8 13 6 19 -8 4 -10 16 -28 26 -39 11
-11 16 -13 12 -5 -8 13 -7 13 10 0 10 -8 21 -15 24 -15 3 0 5 -3 3 -8 -1 -4 1
-6 5 -6 21 3 34 -2 28 -11 -4 -6 -11 -7 -17 -4 -7 4 -8 2 -4 -4 5 -9 13 -9 26
-2 25 13 30 13 30 -3 0 -9 10 -13 28 -12 16 1 39 -8 55 -22 16 -13 35 -23 43
-23 20 0 45 -25 36 -35 -4 -5 -2 -5 4 -2 6 3 22 -5 36 -18 14 -13 29 -21 32
-18 3 4 6 1 6 -6 0 -7 4 -10 8 -7 5 3 19 -8 32 -25 25 -29 53 -38 65 -19 9 15
35 12 35 -4 0 -8 7 -16 15 -20 8 -3 15 0 15 7 0 7 3 8 8 2 10 -14 55 -39 47
-26 -10 17 12 13 29 -5 9 -8 16 -12 16 -8 0 3 6 1 14 -5 11 -9 15 -9 18 1 3 8
11 6 27 -9 13 -12 21 -28 18 -37 -8 -19 12 -34 43 -31 14 1 31 -3 39 -9 11 -8
13 -8 8 0 -10 17 20 25 35 10 8 -7 22 -11 33 -9 39 8 91 2 140 -17 20 -7 31
-7 41 1 9 7 14 8 14 1 0 -11 25 -10 36 1 12 12 26 8 18 -5 -5 -9 -2 -9 9 1 9
7 17 9 17 4 0 -5 36 -9 80 -9 60 -1 80 3 80 13 0 7 4 13 9 13 6 0 8 9 6 20 -2
11 2 23 8 26 7 4 9 4 5 0 -12 -14 15 -35 30 -24 8 7 12 7 12 0 0 -6 15 -6 43
3 23 6 47 10 54 8 6 -2 14 1 18 7 5 8 11 8 21 -1 12 -10 13 -9 8 6 -5 12 -4
16 3 12 6 -4 13 0 17 8 3 8 12 12 20 9 8 -3 17 0 22 7 5 8 3 10 -6 4 -9 -5
-11 -4 -6 4 6 9 11 9 24 -1 13 -11 14 -11 7 1 -6 11 -4 13 7 8 9 -3 24 1 35 9
10 9 13 13 6 10 -6 -4 -14 -2 -18 4 -5 9 15 15 38 11 4 0 7 3 7 9 0 5 7 10 15
10 8 0 15 5 15 11 0 5 4 8 8 5 5 -3 15 5 22 18 14 27 42 39 59 25 6 -5 9 -6 7
-3 -5 7 26 44 37 44 5 0 22 9 38 21 16 11 34 17 40 13 8 -4 9 -3 5 4 -4 7 -2
12 5 12 8 0 8 4 -1 15 -11 13 -10 14 4 9 12 -5 19 0 23 15 3 11 11 21 18 21 7
0 15 7 19 15 3 8 13 15 21 15 9 0 14 4 11 9 -6 9 67 81 84 81 9 0 12 8 9 27 0
3 6 10 15 15 23 13 20 45 -6 53 -57 18 -68 15 -120 -39 -18 -18 -43 -37 -56
-41 -13 -4 -21 -12 -19 -19 5 -12 -31 -42 -45 -38 -5 1 -8 -6 -8 -15 0 -13 -3
-14 -11 -6 -9 9 -22 0 -54 -35 -23 -26 -43 -51 -44 -57 -1 -5 -13 -16 -27 -23
-13 -7 -24 -16 -24 -21 0 -5 -6 -8 -12 -7 -7 0 -13 -2 -13 -5 0 -16 -29 -38
-39 -30 -7 6 -19 2 -35 -10 -20 -16 -21 -19 -5 -19 14 0 15 -3 6 -12 -8 -8
-18 -9 -35 -1 -28 13 -63 -7 -54 -32 7 -17 -18 -21 -28 -4 -4 5 -12 8 -18 6
-7 -2 -22 0 -35 4 -20 8 -21 7 -12 -11 8 -16 8 -20 -4 -20 -8 0 -17 4 -21 10
-7 11 -37 1 -48 -17 -5 -7 -12 -11 -18 -8 -5 4 -9 -2 -9 -12 -1 -17 -1 -17
-15 0 -13 18 -14 18 -31 -2 -17 -20 -34 -20 -34 0 0 6 5 7 12 3 7 -5 8 -3 4 5
-6 9 -13 8 -27 -5 -15 -14 -21 -14 -34 -4 -8 7 -15 9 -15 4 0 -5 -4 -3 -9 5
-8 12 -12 12 -25 2 -10 -9 -31 -11 -61 -8 -25 4 -43 2 -40 -3 3 -5 1 -11 -4
-14 -5 -3 -12 1 -15 10 -5 13 -9 14 -21 4 -12 -10 -15 -9 -15 4 0 18 -34 18
-74 1 -11 -5 -26 -4 -35 2 -12 8 -23 8 -36 1 -15 -9 -17 -8 -11 7 5 14 2 16
-14 12 -11 -3 -23 -1 -26 4 -3 5 -9 7 -14 4 -4 -3 -10 2 -14 10 -3 9 -12 12
-22 8 -10 -3 -15 -2 -12 3 4 5 -20 9 -54 9 -42 -1 -62 3 -67 14 -9 15 -69 23
-77 9 -10 -15 -22 -8 -17 10 8 31 -20 45 -63 33 -41 -11 -50 -9 -39 9 4 7 16
10 26 7 11 -3 19 -1 19 3 0 4 -23 13 -51 20 -28 7 -53 18 -56 26 -5 13 -41 30
-55 26 -5 -1 -8 3 -8 9 0 5 -5 7 -12 3 -7 -5 -9 -2 -6 7 6 15 -16 42 -26 32
-10 -10 -7 -25 4 -18 6 3 10 -3 10 -13 0 -11 -9 -22 -21 -25 -15 -4 -18 -2
-10 7 7 8 7 23 2 42 -5 16 -10 23 -10 17 -1 -7 -6 -13 -12 -13 -5 0 -7 5 -4
10 3 6 1 10 -5 10 -6 0 -8 5 -5 10 8 13 -21 24 -37 14 -25 -16 -36 -12 -30 9
l5 21 -37 -22 c-38 -22 -66 -28 -66 -14 0 4 19 15 42 23 51 19 70 54 32 62
-13 2 -27 0 -30 -4 -3 -5 2 -9 11 -9 9 0 13 -4 10 -10 -3 -5 -17 -10 -31 -10
-13 0 -24 5 -24 10 0 6 5 10 10 10 18 0 11 18 -10 25 -11 3 -20 14 -20 23 0 9
-13 -2 -31 -26 -17 -23 -34 -42 -39 -42 -18 0 -17 29 1 49 11 12 17 26 14 31
-6 10 -48 7 -77 -5 -11 -4 -18 -3 -18 3 0 6 -11 22 -24 35 -17 17 -28 22 -40
15 -28 -16 -54 -17 -66 -3 -6 8 -18 11 -26 8 -21 -8 -44 4 -38 21 5 14 32 14
54 1 6 -3 10 -4 10 -1 0 2 -20 18 -45 35 -25 17 -45 25 -45 19z m850 -498 c0
-5 -4 -10 -10 -10 -5 0 -10 5 -10 10 0 6 5 10 10 10 6 0 10 -4 10 -10z"/>
<path d="M280 2421 c0 -7 -4 -9 -10 -6 -5 3 -10 1 -10 -4 0 -6 4 -11 9 -11 13
0 25 20 17 27 -3 4 -6 1 -6 -6z"/>
<path d="M562 2415 c-11 -12 -10 -15 3 -15 8 0 15 7 15 15 0 18 -2 18 -18 0z"/>
<path d="M870 2370 c0 -5 4 -10 9 -10 6 0 13 5 16 10 3 6 -1 10 -9 10 -9 0
-16 -4 -16 -10z"/>
<path d="M4070 2305 c-7 -9 -11 -17 -9 -20 3 -2 10 5 17 15 14 24 10 26 -8 5z"/>
<path d="M3710 2299 c0 -5 5 -7 10 -4 6 3 10 8 10 11 0 2 -4 4 -10 4 -5 0 -10
-5 -10 -11z"/>
<path d="M3817 2296 c-4 -10 -5 -21 -2 -24 9 -9 17 6 13 25 -3 17 -4 17 -11
-1z"/>
<path d="M3770 2289 c0 -5 5 -7 10 -4 6 3 10 8 10 11 0 2 -4 4 -10 4 -5 0 -10
-5 -10 -11z"/>
<path d="M3743 2275 c-12 -13 -4 -31 14 -30 20 0 26 14 11 28 -10 11 -16 11
-25 2z"/>
<path d="M3915 2250 c-3 -5 -1 -10 4 -10 6 0 11 5 11 10 0 6 -2 10 -4 10 -3 0
-8 -4 -11 -10z"/>
<path d="M1230 2199 c0 -5 5 -7 10 -4 6 3 10 8 10 11 0 2 -4 4 -10 4 -5 0 -10
-5 -10 -11z"/>
<path d="M1880 1909 c0 -11 4 -18 10 -14 5 3 7 12 3 20 -7 21 -13 19 -13 -6z"/>
</g>
</svg>
