<svg width="41" height="50" viewBox="0 0 41 50" fill="none" xmlns="http://www.w3.org/2000/svg">
<g filter="url(#filter0_d_723_48327)">
<path d="M20.0225 42.4717C18.8731 42.4717 17.794 41.8769 16.9796 40.7887L8.26208 29.1292C7.44692 28.0417 7.00012 26.5942 7.00012 25.0555C7.00012 23.5192 7.45009 22.0736 8.26208 20.9895L16.9796 9.32265C17.794 8.23544 18.9085 7.69118 20.0225 7.69118C21.1372 7.69118 22.251 8.23544 23.0639 9.32265L31.7844 20.9895C32.5964 22.0736 33.0448 23.5192 33.0448 25.0555C33.0448 26.5942 32.5988 28.0417 31.7844 29.1292L23.0639 40.7887C22.2517 41.8748 21.1718 42.4717 20.0225 42.4717ZM20.0225 9.27401C19.2012 9.27401 18.4269 9.70249 17.8442 10.4802L9.12664 22.1449C8.54388 22.9223 8.22354 23.958 8.22354 25.0555C8.22354 26.1573 8.54388 27.1911 9.12664 27.9685L17.8442 39.6301C18.4269 40.4107 19.2251 40.799 20.0233 40.799C20.8214 40.799 21.6188 40.4107 22.1994 39.6301L30.9191 27.9685C31.5026 27.1911 31.823 26.1573 31.823 25.0555C31.823 23.958 31.5026 22.9223 30.9191 22.1449L22.1994 10.4802C21.6188 9.70249 20.8445 9.27401 20.0225 9.27401" fill="#EF606F"/>
</g>
<defs>
<filter id="filter0_d_723_48327" x="0.00012207" y="0.691162" width="40.0447" height="48.7805" filterUnits="userSpaceOnUse" color-interpolation-filters="sRGB">
<feFlood flood-opacity="0" result="BackgroundImageFix"/>
<feColorMatrix in="SourceAlpha" type="matrix" values="0 0 0 0 0 0 0 0 0 0 0 0 0 0 0 0 0 0 127 0" result="hardAlpha"/>
<feOffset/>
<feGaussianBlur stdDeviation="3.5"/>
<feComposite in2="hardAlpha" operator="out"/>
<feColorMatrix type="matrix" values="0 0 0 0 0.72275 0 0 0 0 0 0 0 0 0 0.7375 0 0 0 1 0"/>
<feBlend mode="normal" in2="BackgroundImageFix" result="effect1_dropShadow_723_48327"/>
<feBlend mode="normal" in="SourceGraphic" in2="effect1_dropShadow_723_48327" result="shape"/>
</filter>
</defs>
</svg>
